<?xml version="1.0" encoding="UTF-8" standalone="no"?><!DOCTYPE svg PUBLIC "-//W3C//DTD SVG 1.1//EN" "http://www.w3.org/Graphics/SVG/1.1/DTD/svg11.dtd"><!-- Generated by graphviz version 2.35.0 (20140103.1005) --><!-- Title: FlowChart Pages: 1 --><svg width="399pt" height="301pt" viewBox="0.00 0.00 399 301" xmlns="http://www.w3.org/2000/svg" xmlns:xlink="http://www.w3.org/1999/xlink"><defs><linearGradient id="g-terminatorembzld2lrw9udi" x1="0%" x2="100%" y1="0%" y2="0%" spreadMethod="pad"><stop offset="0%" stop-color="#ff8787" stop-opacity="1"/><stop offset="100%" stop-color="#ffb9b9" stop-opacity="1"/></linearGradient><linearGradient id="g-decisionembzld2lrw9udi" x1="0%" x2="100%" y1="0%" y2="0%" spreadMethod="pad"><stop offset="0%" stop-color="#ffd287" stop-opacity="1"/><stop offset="100%" stop-color="#ffffb9" stop-opacity="1"/></linearGradient><linearGradient id="g-processembzld2lrw9udi" x1="0%" x2="100%" y1="0%" y2="0%" spreadMethod="pad"><stop offset="0%" stop-color="#99ff99" stop-opacity="1"/><stop offset="100%" stop-color="#cbffcb" stop-opacity="1"/></linearGradient><linearGradient id="g-defaultembzld2lrw9udi" x1="0%" x2="100%" y1="0%" y2="0%" spreadMethod="pad"><stop offset="0%" stop-color="#99ff99" stop-opacity="1"/><stop offset="100%" stop-color="#cbffcb" stop-opacity="1"/></linearGradient><linearGradient id="g-moduleembzld2lrw9udi" x1="0%" x2="100%" y1="0%" y2="0%" spreadMethod="pad"><stop offset="0%" stop-color="#77c1e4" stop-opacity="1"/><stop offset="100%" stop-color="#a9f3ff" stop-opacity="1"/></linearGradient><linearGradient id="g-dataioembzld2lrw9udi" x1="0%" x2="100%" y1="0%" y2="0%" spreadMethod="pad"><stop offset="0%" stop-color="#bebebe" stop-opacity="1"/><stop offset="100%" stop-color="#f0f0f0" stop-opacity="1"/></linearGradient><linearGradient id="g-preparationembzld2lrw9udi" x1="0%" x2="100%" y1="0%" y2="0%" spreadMethod="pad"><stop offset="0%" stop-color="#bebebe" stop-opacity="1"/><stop offset="100%" stop-color="#f0f0f0" stop-opacity="1"/></linearGradient><linearGradient id="g-commentembzld2lrw9udi" x1="0%" x2="100%" y1="0%" y2="0%" spreadMethod="pad"><stop offset="0%" stop-color="#f5f588" stop-opacity="1"/><stop offset="100%" stop-color="#ffffba" stop-opacity="1"/></linearGradient><linearGradient id="g-manualembzld2lrw9udi" x1="0%" x2="100%" y1="0%" y2="0%" spreadMethod="pad"><stop offset="0%" stop-color="#9e78ff" stop-opacity="1"/><stop offset="100%" stop-color="#d0aaff" stop-opacity="1"/></linearGradient><filter id="dropshadowembzld2lrw9udi" height="150%" width="150%"><feGaussianBlur in="SourceAlpha" stdDeviation="3"/><feOffset dx="2" dy="2" result="offsetblur"/><feComponentTransfer/><feMerge><feMergeNode/><feMergeNode in="SourceGraphic"/></feMerge></filter></defs><g id="flowembzld2lrw9udi" class="graph" transform="scale(1 1) rotate(0) translate(4 292)"><title>FlowChart</title><!-- terminator_block_1 --><g id="node1" class="node"><title>terminator_block_1</title><ellipse fill="url(#g-terminatorembzld2lrw9udi)" stroke="black" cx="193" cy="-270" rx="96.311" ry="18"/><text xml:space="preserve" text-anchor="start" x="119" y="-267.5" font-family="Open Sans" font-size="10.00">For each series  in series table</text></g><!-- process_block_2 --><g id="node2" class="node"><title>process_block_2</title><polygon fill="url(#g-processembzld2lrw9udi)" stroke="black" points="282.25,-225 103.75,-225 103.75,-189 282.25,-189 282.25,-225"/><text xml:space="preserve" text-anchor="start" x="110.5" y="-204.5" font-family="Open Sans" font-size="10.00">Get messages from message table</text></g><!-- terminator_block_1&#45;&gt;process_block_2 --><g id="edge1" class="edge"><title>terminator_block_1->process_block_2</title><path fill="none" stroke="black" d="M193,-251.683C193,-246.617 193,-240.951 193,-235.421"/><polygon fill="black" stroke="black" points="196.5,-235.149 193,-225.149 189.5,-235.149 196.5,-235.149"/></g><!-- process_block_3 --><g id="node3" class="node"><title>process_block_3</title><polygon fill="url(#g-processembzld2lrw9udi)" stroke="black" points="386.25,-162 -0.25,-162 -0.25,-126 386.25,-126 386.25,-162"/><text xml:space="preserve" text-anchor="start" x="6.5" y="-141.5" font-family="Open Sans" font-size="10.00">For each message gater its media content from message media content table</text></g><!-- process_block_2&#45;&gt;process_block_3 --><g id="edge2" class="edge"><title>process_block_2->process_block_3</title><path fill="none" stroke="black" d="M193,-188.683C193,-183.617 193,-177.951 193,-172.421"/><polygon fill="black" stroke="black" points="196.5,-172.149 193,-162.149 189.5,-172.149 196.5,-172.149"/></g><!-- process_block_4 --><g id="node4" class="node"><title>process_block_4</title><polygon fill="url(#g-processembzld2lrw9udi)" stroke="black" points="366.25,-99 19.75,-99 19.75,-63 366.25,-63 366.25,-99"/><text xml:space="preserve" text-anchor="start" x="42" y="-84" font-family="Open Sans" font-size="10.00">Create Jekyll front matter string with all attributes of message </text><text xml:space="preserve" text-anchor="start" x="26.5" y="-73" font-family="Open Sans" font-size="10.00">Create a file in the specified destination by adding jekyll front matter</text></g><!-- process_block_3&#45;&gt;process_block_4 --><g id="edge3" class="edge"><title>process_block_3->process_block_4</title><path fill="none" stroke="black" d="M193,-125.683C193,-120.617 193,-114.951 193,-109.421"/><polygon fill="black" stroke="black" points="196.5,-109.149 193,-99.1492 189.5,-109.149 196.5,-109.149"/></g><!-- terminator_block_5 --><g id="node5" class="node"><title>terminator_block_5</title><ellipse fill="url(#g-terminatorembzld2lrw9udi)" stroke="black" cx="193" cy="-18" rx="27" ry="18"/><text xml:space="preserve" text-anchor="start" x="181" y="-15.5" font-family="Open Sans" font-size="10.00">done</text></g><!-- process_block_4&#45;&gt;terminator_block_5 --><g id="edge4" class="edge"><title>process_block_4->terminator_block_5</title><path fill="none" stroke="black" d="M193,-62.683C193,-57.6175 193,-51.9512 193,-46.4213"/><polygon fill="black" stroke="black" points="196.5,-46.1491 193,-36.1492 189.5,-46.1492 196.5,-46.1491"/></g></g></svg>