<?xml version="1.0" encoding="UTF-8" standalone="no"?><!DOCTYPE svg PUBLIC "-//W3C//DTD SVG 1.1//EN" "http://www.w3.org/Graphics/SVG/1.1/DTD/svg11.dtd"><!-- Generated by graphviz version 2.35.0 (20140103.1005) --><!-- Title: FlowChart Pages: 1 --><svg width="447pt" height="769pt" viewBox="0.00 0.00 447 769" xmlns="http://www.w3.org/2000/svg" xmlns:xlink="http://www.w3.org/1999/xlink"><defs><linearGradient id="g-terminatornvc46oa8twqaor" x1="0%" x2="100%" y1="0%" y2="0%" spreadMethod="pad"><stop offset="0%" stop-color="#ff8787" stop-opacity="1"/><stop offset="100%" stop-color="#ffb9b9" stop-opacity="1"/></linearGradient><linearGradient id="g-decisionnvc46oa8twqaor" x1="0%" x2="100%" y1="0%" y2="0%" spreadMethod="pad"><stop offset="0%" stop-color="#ffd287" stop-opacity="1"/><stop offset="100%" stop-color="#ffffb9" stop-opacity="1"/></linearGradient><linearGradient id="g-processnvc46oa8twqaor" x1="0%" x2="100%" y1="0%" y2="0%" spreadMethod="pad"><stop offset="0%" stop-color="#99ff99" stop-opacity="1"/><stop offset="100%" stop-color="#cbffcb" stop-opacity="1"/></linearGradient><linearGradient id="g-defaultnvc46oa8twqaor" x1="0%" x2="100%" y1="0%" y2="0%" spreadMethod="pad"><stop offset="0%" stop-color="#99ff99" stop-opacity="1"/><stop offset="100%" stop-color="#cbffcb" stop-opacity="1"/></linearGradient><linearGradient id="g-modulenvc46oa8twqaor" x1="0%" x2="100%" y1="0%" y2="0%" spreadMethod="pad"><stop offset="0%" stop-color="#77c1e4" stop-opacity="1"/><stop offset="100%" stop-color="#a9f3ff" stop-opacity="1"/></linearGradient><linearGradient id="g-dataionvc46oa8twqaor" x1="0%" x2="100%" y1="0%" y2="0%" spreadMethod="pad"><stop offset="0%" stop-color="#bebebe" stop-opacity="1"/><stop offset="100%" stop-color="#f0f0f0" stop-opacity="1"/></linearGradient><linearGradient id="g-preparationnvc46oa8twqaor" x1="0%" x2="100%" y1="0%" y2="0%" spreadMethod="pad"><stop offset="0%" stop-color="#bebebe" stop-opacity="1"/><stop offset="100%" stop-color="#f0f0f0" stop-opacity="1"/></linearGradient><linearGradient id="g-commentnvc46oa8twqaor" x1="0%" x2="100%" y1="0%" y2="0%" spreadMethod="pad"><stop offset="0%" stop-color="#f5f588" stop-opacity="1"/><stop offset="100%" stop-color="#ffffba" stop-opacity="1"/></linearGradient><linearGradient id="g-manualnvc46oa8twqaor" x1="0%" x2="100%" y1="0%" y2="0%" spreadMethod="pad"><stop offset="0%" stop-color="#9e78ff" stop-opacity="1"/><stop offset="100%" stop-color="#d0aaff" stop-opacity="1"/></linearGradient><filter id="dropshadownvc46oa8twqaor" height="150%" width="150%"><feGaussianBlur in="SourceAlpha" stdDeviation="3"/><feOffset dx="2" dy="2" result="offsetblur"/><feComponentTransfer/><feMerge><feMergeNode/><feMergeNode in="SourceGraphic"/></feMerge></filter></defs><g id="flownvc46oa8twqaor" class="graph" transform="scale(1 1) rotate(0) translate(4 760)"><title>FlowChart</title><!-- terminator_block_1 --><g id="node1" class="node"><title>terminator_block_1</title><ellipse fill="url(#g-terminatornvc46oa8twqaor)" stroke="black" cx="81" cy="-738" rx="81.3536" ry="18"/><text xml:space="preserve" text-anchor="start" x="20" y="-735.5" font-family="Open Sans" font-size="10.00">upload videos to youtube</text></g><!-- process_block_2 --><g id="node2" class="node"><title>process_block_2</title><polygon fill="url(#g-processnvc46oa8twqaor)" stroke="black" points="226.25,-686 95.75,-686 95.75,-650 226.25,-650 226.25,-686"/><text xml:space="preserve" text-anchor="start" x="102.5" y="-665.5" font-family="Open Sans" font-size="10.00">Get client id and API key</text></g><!-- terminator_block_1&#45;&gt;process_block_2 --><g id="edge1" class="edge"><title>terminator_block_1->process_block_2</title><path fill="none" stroke="black" d="M100.775,-720.191C110.509,-711.917 122.412,-701.8 133.058,-692.751"/><polygon fill="black" stroke="black" points="135.544,-695.231 140.897,-686.088 131.01,-689.898 135.544,-695.231"/></g><!-- process_block_4 --><g id="node4" class="node"><title>process_block_4</title><polygon fill="url(#g-processnvc46oa8twqaor)" stroke="black" points="321.25,-616 196.75,-616 196.75,-580 321.25,-580 321.25,-616"/><text xml:space="preserve" text-anchor="start" x="203.5" y="-595.5" font-family="Open Sans" font-size="10.00">get video file to upload</text></g><!-- process_block_2&#45;&gt;process_block_4 --><g id="edge2" class="edge"><title>process_block_2->process_block_4</title><path fill="none" stroke="black" d="M185.73,-649.841C197.916,-641.385 212.782,-631.069 225.931,-621.946"/><polygon fill="black" stroke="black" points="228.058,-624.73 234.278,-616.154 224.067,-618.979 228.058,-624.73"/></g><!-- comment_block_3 --><g id="node3" class="node"><title>comment_block_3</title><polygon fill="url(#g-commentnvc46oa8twqaor)" stroke="black" points="289,-756 187,-756 187,-720 295,-720 295,-750 289,-756"/><polyline fill="none" stroke="black" points="289,-756 289,-750 "/><polyline fill="none" stroke="black" points="295,-750 289,-750 "/><text xml:space="preserve" text-anchor="start" x="195" y="-739" font-family="Open Sans" font-size="8.00">By registering a project in</text><text xml:space="preserve" text-anchor="start" x="191" y="-730" font-family="Open Sans" font-size="8.00">youtube developer console</text></g><!-- comment_block_3&#45;&gt;process_block_2 --><g id="edge15" class="edge"><title>comment_block_3->process_block_2</title><path fill="none" stroke="black" stroke-dasharray="5,2" d="M220.813,-719.841C210.012,-710.66 196.632,-699.287 185.268,-689.628"/><polyline fill="none" stroke="black" points="181.181,-686.154 184.991,-689.392 "/></g><!-- ifs_block_6 --><g id="node6" class="node"><title>ifs_block_6</title><polygon fill="url(#g-decisionnvc46oa8twqaor)" stroke="black" points="259,-546 152.661,-528 259,-510 365.339,-528 259,-546"/><text xml:space="preserve" text-anchor="start" x="203" y="-525.5" font-family="Open Sans" font-size="10.00">Access token is expired</text></g><!-- process_block_4&#45;&gt;ifs_block_6 --><g id="edge3" class="edge"><title>process_block_4->ifs_block_6</title><path fill="none" stroke="black" d="M259,-579.841C259,-572.808 259,-564.489 259,-556.639"/><polygon fill="black" stroke="black" points="262.5,-556.39 259,-546.39 255.5,-556.39 262.5,-556.39"/></g><!-- comment_block_5 --><g id="node5" class="node"><title>comment_block_5</title><polygon fill="url(#g-commentnvc46oa8twqaor)" stroke="black" points="346,-686 252,-686 252,-650 352,-650 352,-680 346,-686"/><polyline fill="none" stroke="black" points="346,-686 346,-680 "/><polyline fill="none" stroke="black" points="352,-680 346,-680 "/><text xml:space="preserve" text-anchor="start" x="256" y="-664.5" font-family="Open Sans" font-size="8.00">get video details from DB</text></g><!-- comment_block_5&#45;&gt;process_block_4 --><g id="edge14" class="edge"><title>comment_block_5->process_block_4</title><path fill="none" stroke="black" stroke-dasharray="5,2" d="M291.149,-649.841C285.59,-641.05 278.76,-630.249 272.828,-620.867"/><polyline fill="none" stroke="black" points="269.997,-616.39 272.669,-620.616 "/></g><!-- process_block_7 --><g id="node7" class="node"><title>process_block_7</title><polygon fill="url(#g-processnvc46oa8twqaor)" stroke="black" points="264.25,-466 145.75,-466 145.75,-430 264.25,-430 264.25,-466"/><text xml:space="preserve" text-anchor="start" x="152.5" y="-445.5" font-family="Open Sans" font-size="10.00">Get new access token</text></g><!-- ifs_block_6&#45;&gt;process_block_7 --><g id="edge4" class="edge"><title>ifs_block_6->process_block_7</title><path fill="none" stroke="black" d="M248.331,-511.59C241.01,-501.015 231.123,-486.733 222.642,-474.483"/><polygon fill="black" stroke="black" points="225.341,-472.233 216.771,-466.003 219.586,-476.217 225.341,-472.233"/><text xml:space="preserve" text-anchor="start" x="236" y="-486.5" font-family="Open Sans" font-weight="bold" font-size="10.00"> True </text><polyline fill="none" stroke="Black" points="266,-482.5 227.535,-482.5 "/></g><!-- process_block_8 --><g id="node8" class="node"><title>process_block_8</title><polygon fill="url(#g-processnvc46oa8twqaor)" stroke="black" points="434.25,-466 289.75,-466 289.75,-430 434.25,-430 434.25,-466"/><text xml:space="preserve" text-anchor="start" x="296.5" y="-445.5" font-family="Open Sans" font-size="10.00">Use the same access token</text></g><!-- ifs_block_6&#45;&gt;process_block_8 --><g id="edge5" class="edge"><title>ifs_block_6->process_block_8</title><path fill="none" stroke="black" d="M277.414,-513.055C292.332,-501.758 313.674,-485.597 331.187,-472.334"/><polygon fill="black" stroke="black" points="333.573,-474.918 339.432,-466.09 329.347,-469.337 333.573,-474.918"/><text xml:space="preserve" text-anchor="start" x="316" y="-486.5" font-family="Open Sans" font-weight="bold" font-size="10.00"> False </text><polyline fill="none" stroke="Black" points="347,-482.5 317.494,-482.5 "/></g><!-- process_block_9 --><g id="node9" class="node"><title>process_block_9</title><polygon fill="url(#g-processnvc46oa8twqaor)" stroke="black" points="425,-396 173,-396 173,-360 425,-360 425,-396"/><text xml:space="preserve" text-anchor="start" x="235" y="-381" font-family="Open Sans" font-size="10.00">Create client and youtube </text><text xml:space="preserve" text-anchor="start" x="180" y="-370" font-family="Open Sans" font-size="10.00">data api abject using access token and client info</text></g><!-- process_block_7&#45;&gt;process_block_9 --><g id="edge6" class="edge"><title>process_block_7->process_block_9</title><path fill="none" stroke="black" d="M228.72,-429.841C240.298,-421.465 254.397,-411.266 266.92,-402.207"/><polygon fill="black" stroke="black" points="269.237,-404.851 275.287,-396.154 265.134,-399.179 269.237,-404.851"/></g><!-- process_block_8&#45;&gt;process_block_9 --><g id="edge7" class="edge"><title>process_block_8->process_block_9</title><path fill="none" stroke="black" d="M346.102,-429.841C338.846,-422.009 330.112,-412.582 322.147,-403.984"/><polygon fill="black" stroke="black" points="324.475,-401.347 315.112,-396.39 319.34,-406.105 324.475,-401.347"/></g><!-- process_block_10 --><g id="node10" class="node"><title>process_block_10</title><polygon fill="url(#g-processnvc46oa8twqaor)" stroke="black" points="394.25,-326 203.75,-326 203.75,-290 394.25,-290 394.25,-326"/><text xml:space="preserve" text-anchor="start" x="210.5" y="-305.5" font-family="Open Sans" font-size="10.00">Upload videos using api client object</text></g><!-- process_block_9&#45;&gt;process_block_10 --><g id="edge8" class="edge"><title>process_block_9->process_block_10</title><path fill="none" stroke="black" d="M299,-359.841C299,-352.808 299,-344.489 299,-336.639"/><polygon fill="black" stroke="black" points="302.5,-336.39 299,-326.39 295.5,-336.39 302.5,-336.39"/></g><!-- ifs_block_11 --><g id="node11" class="node"><title>ifs_block_11</title><polygon fill="url(#g-decisionnvc46oa8twqaor)" stroke="black" points="299,-256 254.816,-238 299,-220 343.184,-238 299,-256"/><text xml:space="preserve" text-anchor="start" x="280.5" y="-235.5" font-family="Open Sans" font-size="10.00">success</text></g><!-- process_block_10&#45;&gt;ifs_block_11 --><g id="edge9" class="edge"><title>process_block_10->ifs_block_11</title><path fill="none" stroke="black" d="M299,-289.841C299,-282.808 299,-274.489 299,-266.639"/><polygon fill="black" stroke="black" points="302.5,-266.39 299,-256.39 295.5,-266.39 302.5,-266.39"/></g><!-- process_block_12 --><g id="node12" class="node"><title>process_block_12</title><polygon fill="url(#g-processnvc46oa8twqaor)" stroke="black" points="284,-176 110,-176 110,-140 284,-140 284,-176"/><text xml:space="preserve" text-anchor="start" x="117" y="-155.5" font-family="Open Sans" font-size="10.00">Store the video information in DB</text></g><!-- ifs_block_11&#45;&gt;process_block_12 --><g id="edge10" class="edge"><title>ifs_block_11->process_block_12</title><path fill="none" stroke="black" d="M284.386,-225.825C269.607,-214.523 246.321,-196.716 227.502,-182.325"/><polygon fill="black" stroke="black" points="229.553,-179.487 219.483,-176.193 225.3,-185.048 229.553,-179.487"/><text xml:space="preserve" text-anchor="start" x="255" y="-196.5" font-family="Open Sans" font-weight="bold" font-size="10.00"> True </text><polyline fill="none" stroke="Black" points="285,-192.5 240.357,-192.5 "/></g><!-- process_block_13 --><g id="node13" class="node"><title>process_block_13</title><polygon fill="url(#g-processnvc46oa8twqaor)" stroke="black" points="346,-106 238,-106 238,-70 346,-70 346,-106"/><text xml:space="preserve" text-anchor="start" x="245" y="-91" font-family="Open Sans" font-size="10.00">Log the failed video</text><text xml:space="preserve" text-anchor="start" x="252" y="-80" font-family="Open Sans" font-size="10.00">details in log file</text></g><!-- ifs_block_11&#45;&gt;process_block_13 --><g id="edge12" class="edge"><title>ifs_block_11->process_block_13</title><path fill="none" stroke="black" d="M299.045,-219.813C299.004,-200.411 298.654,-167.912 297,-140 296.549,-132.394 295.841,-124.17 295.097,-116.592"/><polygon fill="black" stroke="black" points="298.557,-116.027 294.046,-106.441 291.595,-116.748 298.557,-116.027"/><text xml:space="preserve" text-anchor="start" x="298" y="-156.5" font-family="Open Sans" font-weight="bold" font-size="10.00"> False </text><polyline fill="none" stroke="Black" points="329,-152.5 297.683,-152.5 "/></g><!-- process_block_12&#45;&gt;process_block_13 --><g id="edge11" class="edge"><title>process_block_12->process_block_13</title><path fill="none" stroke="black" d="M220.973,-139.841C232.674,-131.465 246.923,-121.266 259.579,-112.207"/><polygon fill="black" stroke="black" points="261.941,-114.82 268.035,-106.154 257.866,-109.128 261.941,-114.82"/></g><!-- terminator_block_14 --><g id="node14" class="node"><title>terminator_block_14</title><ellipse fill="url(#g-terminatornvc46oa8twqaor)" stroke="black" cx="292" cy="-18" rx="27" ry="18"/><text xml:space="preserve" text-anchor="start" x="279.5" y="-15.5" font-family="Open Sans" font-size="10.00">Done</text></g><!-- process_block_13&#45;&gt;terminator_block_14 --><g id="edge13" class="edge"><title>process_block_13->terminator_block_14</title><path fill="none" stroke="black" d="M292,-69.8407C292,-62.8079 292,-54.4889 292,-46.6391"/><polygon fill="black" stroke="black" points="295.5,-46.3903 292,-36.3903 288.5,-46.3903 295.5,-46.3903"/></g></g></svg>