<?xml version="1.0" encoding="UTF-8" standalone="no"?><!DOCTYPE svg PUBLIC "-//W3C//DTD SVG 1.1//EN" "http://www.w3.org/Graphics/SVG/1.1/DTD/svg11.dtd"><!-- Generated by graphviz version 2.35.0 (20140103.1005) --><!-- Title: FlowChart Pages: 1 --><svg width="268pt" height="187pt" viewBox="0.00 0.00 268 187" xmlns="http://www.w3.org/2000/svg" xmlns:xlink="http://www.w3.org/1999/xlink"><defs><linearGradient id="g-terminatorr0kt7gxriicnmi" x1="0%" x2="100%" y1="0%" y2="0%" spreadMethod="pad"><stop offset="0%" stop-color="#ff8787" stop-opacity="1"/><stop offset="100%" stop-color="#ffb9b9" stop-opacity="1"/></linearGradient><linearGradient id="g-decisionr0kt7gxriicnmi" x1="0%" x2="100%" y1="0%" y2="0%" spreadMethod="pad"><stop offset="0%" stop-color="#ffd287" stop-opacity="1"/><stop offset="100%" stop-color="#ffffb9" stop-opacity="1"/></linearGradient><linearGradient id="g-processr0kt7gxriicnmi" x1="0%" x2="100%" y1="0%" y2="0%" spreadMethod="pad"><stop offset="0%" stop-color="#99ff99" stop-opacity="1"/><stop offset="100%" stop-color="#cbffcb" stop-opacity="1"/></linearGradient><linearGradient id="g-defaultr0kt7gxriicnmi" x1="0%" x2="100%" y1="0%" y2="0%" spreadMethod="pad"><stop offset="0%" stop-color="#99ff99" stop-opacity="1"/><stop offset="100%" stop-color="#cbffcb" stop-opacity="1"/></linearGradient><linearGradient id="g-moduler0kt7gxriicnmi" x1="0%" x2="100%" y1="0%" y2="0%" spreadMethod="pad"><stop offset="0%" stop-color="#77c1e4" stop-opacity="1"/><stop offset="100%" stop-color="#a9f3ff" stop-opacity="1"/></linearGradient><linearGradient id="g-dataior0kt7gxriicnmi" x1="0%" x2="100%" y1="0%" y2="0%" spreadMethod="pad"><stop offset="0%" stop-color="#bebebe" stop-opacity="1"/><stop offset="100%" stop-color="#f0f0f0" stop-opacity="1"/></linearGradient><linearGradient id="g-preparationr0kt7gxriicnmi" x1="0%" x2="100%" y1="0%" y2="0%" spreadMethod="pad"><stop offset="0%" stop-color="#bebebe" stop-opacity="1"/><stop offset="100%" stop-color="#f0f0f0" stop-opacity="1"/></linearGradient><linearGradient id="g-commentr0kt7gxriicnmi" x1="0%" x2="100%" y1="0%" y2="0%" spreadMethod="pad"><stop offset="0%" stop-color="#f5f588" stop-opacity="1"/><stop offset="100%" stop-color="#ffffba" stop-opacity="1"/></linearGradient><linearGradient id="g-manualr0kt7gxriicnmi" x1="0%" x2="100%" y1="0%" y2="0%" spreadMethod="pad"><stop offset="0%" stop-color="#9e78ff" stop-opacity="1"/><stop offset="100%" stop-color="#d0aaff" stop-opacity="1"/></linearGradient><filter id="dropshadowr0kt7gxriicnmi" height="150%" width="150%"><feGaussianBlur in="SourceAlpha" stdDeviation="3"/><feOffset dx="2" dy="2" result="offsetblur"/><feComponentTransfer/><feMerge><feMergeNode/><feMergeNode in="SourceGraphic"/></feMerge></filter></defs><g id="flowr0kt7gxriicnmi" class="graph" transform="scale(1 1) rotate(0) translate(4 178)"><title>FlowChart</title><!-- terminator_block_1 --><g id="node1" class="node"><title>terminator_block_1</title><ellipse fill="url(#g-terminatorr0kt7gxriicnmi)" stroke="black" cx="204" cy="-87" rx="51.321" ry="18"/><text xml:space="preserve" text-anchor="start" x="168.5" y="-84.5" font-family="Open Sans" font-size="10.00">Media Content</text></g><!-- terminator_block_3 --><g id="node3" class="node"><title>terminator_block_3</title><ellipse fill="url(#g-terminatorr0kt7gxriicnmi)" stroke="black" cx="129" cy="-18" rx="94.1636" ry="18"/><text xml:space="preserve" text-anchor="start" x="56.5" y="-15.5" font-family="Open Sans" font-size="10.00">Will contain the required data</text></g><!-- terminator_block_1&#45;&gt;terminator_block_3 --><g id="edge1" class="edge"><title>terminator_block_1->terminator_block_3</title><path fill="none" stroke="black" d="M186.226,-70.1219C176.975,-61.8577 165.485,-51.5933 155.233,-42.4352"/><polygon fill="black" stroke="black" points="157.482,-39.7511 147.693,-35.6991 152.819,-44.9714 157.482,-39.7511"/></g><!-- comment_block_2 --><g id="node2" class="node"><title>comment_block_2</title><polygon fill="url(#g-commentr0kt7gxriicnmi)" stroke="black" points="246.5,-174 155.5,-174 155.5,-138 252.5,-138 252.5,-168 246.5,-174"/><polyline fill="none" stroke="black" points="246.5,-174 246.5,-168 "/><polyline fill="none" stroke="black" points="252.5,-168 246.5,-168 "/><text xml:space="preserve" text-anchor="start" x="159" y="-157" font-family="Open Sans" font-size="8.00">get all the media content</text><text xml:space="preserve" text-anchor="start" x="163" y="-148" font-family="Open Sans" font-size="8.00">with content type as 1</text></g><!-- comment_block_2&#45;&gt;terminator_block_1 --><g id="edge3" class="edge"><title>comment_block_2->terminator_block_1</title><path fill="none" stroke="black" stroke-dasharray="5,2" d="M204,-137.746C204,-129.526 204,-119.584 204,-110.756"/><polyline fill="none" stroke="black" points="204,-105.429 204,-110.429 "/></g><!-- comment_block_4 --><g id="node4" class="node"><title>comment_block_4</title><polygon fill="url(#g-commentr0kt7gxriicnmi)" stroke="black" points="102,-105 0,-105 0,-69 108,-69 108,-99 102,-105"/><polyline fill="none" stroke="black" points="102,-105 102,-99 "/><polyline fill="none" stroke="black" points="108,-99 102,-99 "/><text xml:space="preserve" text-anchor="start" x="4" y="-88" font-family="Open Sans" font-size="8.00">will contain the videos with</text><text xml:space="preserve" text-anchor="start" x="36.5" y="-79" font-family="Open Sans" font-size="8.00">mp4 type</text></g><!-- comment_block_4&#45;&gt;terminator_block_3 --><g id="edge2" class="edge"><title>comment_block_4->terminator_block_3</title><path fill="none" stroke="black" stroke-dasharray="5,2" d="M73.3144,-68.7458C83.442,-59.6985 95.9047,-48.5652 106.47,-39.1265"/><polyline fill="none" stroke="black" points="110.269,-35.7328 106.54,-39.0639 "/></g></g></svg>