<?xml version="1.0" encoding="UTF-8" standalone="no"?><!DOCTYPE svg PUBLIC "-//W3C//DTD SVG 1.1//EN" "http://www.w3.org/Graphics/SVG/1.1/DTD/svg11.dtd"><!-- Generated by graphviz version 2.35.0 (20140103.1005) --><!-- Title: FlowChart Pages: 1 --><svg width="370pt" height="485pt" viewBox="0.00 0.00 370 485" xmlns="http://www.w3.org/2000/svg" xmlns:xlink="http://www.w3.org/1999/xlink"><defs><linearGradient id="g-terminatorzwvbqjugdxtj4i" x1="0%" x2="100%" y1="0%" y2="0%" spreadMethod="pad"><stop offset="0%" stop-color="#ff8787" stop-opacity="1"/><stop offset="100%" stop-color="#ffb9b9" stop-opacity="1"/></linearGradient><linearGradient id="g-decisionzwvbqjugdxtj4i" x1="0%" x2="100%" y1="0%" y2="0%" spreadMethod="pad"><stop offset="0%" stop-color="#ffd287" stop-opacity="1"/><stop offset="100%" stop-color="#ffffb9" stop-opacity="1"/></linearGradient><linearGradient id="g-processzwvbqjugdxtj4i" x1="0%" x2="100%" y1="0%" y2="0%" spreadMethod="pad"><stop offset="0%" stop-color="#99ff99" stop-opacity="1"/><stop offset="100%" stop-color="#cbffcb" stop-opacity="1"/></linearGradient><linearGradient id="g-defaultzwvbqjugdxtj4i" x1="0%" x2="100%" y1="0%" y2="0%" spreadMethod="pad"><stop offset="0%" stop-color="#99ff99" stop-opacity="1"/><stop offset="100%" stop-color="#cbffcb" stop-opacity="1"/></linearGradient><linearGradient id="g-modulezwvbqjugdxtj4i" x1="0%" x2="100%" y1="0%" y2="0%" spreadMethod="pad"><stop offset="0%" stop-color="#77c1e4" stop-opacity="1"/><stop offset="100%" stop-color="#a9f3ff" stop-opacity="1"/></linearGradient><linearGradient id="g-dataiozwvbqjugdxtj4i" x1="0%" x2="100%" y1="0%" y2="0%" spreadMethod="pad"><stop offset="0%" stop-color="#bebebe" stop-opacity="1"/><stop offset="100%" stop-color="#f0f0f0" stop-opacity="1"/></linearGradient><linearGradient id="g-preparationzwvbqjugdxtj4i" x1="0%" x2="100%" y1="0%" y2="0%" spreadMethod="pad"><stop offset="0%" stop-color="#bebebe" stop-opacity="1"/><stop offset="100%" stop-color="#f0f0f0" stop-opacity="1"/></linearGradient><linearGradient id="g-commentzwvbqjugdxtj4i" x1="0%" x2="100%" y1="0%" y2="0%" spreadMethod="pad"><stop offset="0%" stop-color="#f5f588" stop-opacity="1"/><stop offset="100%" stop-color="#ffffba" stop-opacity="1"/></linearGradient><linearGradient id="g-manualzwvbqjugdxtj4i" x1="0%" x2="100%" y1="0%" y2="0%" spreadMethod="pad"><stop offset="0%" stop-color="#9e78ff" stop-opacity="1"/><stop offset="100%" stop-color="#d0aaff" stop-opacity="1"/></linearGradient><filter id="dropshadowzwvbqjugdxtj4i" height="150%" width="150%"><feGaussianBlur in="SourceAlpha" stdDeviation="3"/><feOffset dx="2" dy="2" result="offsetblur"/><feComponentTransfer/><feMerge><feMergeNode/><feMergeNode in="SourceGraphic"/></feMerge></filter></defs><g id="flowzwvbqjugdxtj4i" class="graph" transform="scale(1 1) rotate(0) translate(4 476)"><title>FlowChart</title><!-- terminator_block_1 --><g id="node1" class="node"><title>terminator_block_1</title><ellipse fill="url(#g-terminatorzwvbqjugdxtj4i)" stroke="black" cx="96" cy="-445" rx="96.311" ry="18"/><text xml:space="preserve" text-anchor="start" x="22" y="-442.5" font-family="Open Sans" font-size="10.00">Add message videos to playlist</text></g><!-- process_block_2 --><g id="node2" class="node"><title>process_block_2</title><polygon fill="url(#g-processzwvbqjugdxtj4i)" stroke="black" points="241.25,-386 124.75,-386 124.75,-350 241.25,-350 241.25,-386"/><text xml:space="preserve" text-anchor="start" x="131.5" y="-365.5" font-family="Open Sans" font-size="10.00">Get message video id</text></g><!-- terminator_block_1&#45;&gt;process_block_2 --><g id="edge1" class="edge"><title>terminator_block_1->process_block_2</title><path fill="none" stroke="black" d="M115.308,-427.355C127.082,-417.205 142.322,-404.067 155.36,-392.828"/><polygon fill="black" stroke="black" points="157.854,-395.299 163.143,-386.118 153.283,-389.997 157.854,-395.299"/></g><!-- ifs_block_4 --><g id="node4" class="node"><title>ifs_block_4</title><polygon fill="url(#g-decisionzwvbqjugdxtj4i)" stroke="black" points="183,-318 76.6611,-300 183,-282 289.339,-300 183,-318"/><text xml:space="preserve" text-anchor="start" x="127" y="-297.5" font-family="Open Sans" font-size="10.00">Access token is expired</text></g><!-- process_block_2&#45;&gt;ifs_block_4 --><g id="edge2" class="edge"><title>process_block_2->ifs_block_4</title><path fill="none" stroke="black" d="M183,-349.659C183,-343.193 183,-335.682 183,-328.525"/><polygon fill="black" stroke="black" points="186.5,-328.454 183,-318.454 179.5,-328.454 186.5,-328.454"/></g><!-- comment_block_3 --><g id="node3" class="node"><title>comment_block_3</title><polygon fill="url(#g-commentzwvbqjugdxtj4i)" stroke="black" points="321.25,-471.5 214.75,-471.5 214.75,-418.5 327.25,-418.5 327.25,-465.5 321.25,-471.5"/><polyline fill="none" stroke="black" points="321.25,-471.5 321.25,-465.5 "/><polyline fill="none" stroke="black" points="327.25,-465.5 321.25,-465.5 "/><text xml:space="preserve" text-anchor="start" x="225.5" y="-459.5" font-family="Open Sans" font-size="8.00">Get all message video ids</text><text xml:space="preserve" text-anchor="start" x="262" y="-450.5" font-family="Open Sans" font-size="8.00">from</text><text xml:space="preserve" text-anchor="start" x="218.5" y="-441.5" font-family="Open Sans" font-size="8.00">milacron_youtube_reference</text><text xml:space="preserve" text-anchor="start" x="220.5" y="-432.5" font-family="Open Sans" font-size="8.00">table based on contenttype</text><text xml:space="preserve" text-anchor="start" x="267.5" y="-423.5" font-family="Open Sans" font-size="8.00">id</text></g><!-- comment_block_3&#45;&gt;process_block_2 --><g id="edge9" class="edge"><title>comment_block_3->process_block_2</title><path fill="none" stroke="black" stroke-dasharray="5,2" d="M240.715,-418.189C229.743,-408.837 217.505,-398.408 207.133,-389.568"/><polyline fill="none" stroke="black" points="203.108,-386.137 206.913,-389.381 "/></g><!-- process_block_5 --><g id="node5" class="node"><title>process_block_5</title><polygon fill="url(#g-processzwvbqjugdxtj4i)" stroke="black" points="190.25,-240 71.75,-240 71.75,-204 190.25,-204 190.25,-240"/><text xml:space="preserve" text-anchor="start" x="78.5" y="-219.5" font-family="Open Sans" font-size="10.00">Get new access token</text></g><!-- ifs_block_4&#45;&gt;process_block_5 --><g id="edge3" class="edge"><title>ifs_block_4->process_block_5</title><path fill="none" stroke="black" d="M172.477,-283.62C165.619,-273.597 156.502,-260.272 148.562,-248.668"/><polygon fill="black" stroke="black" points="151.313,-246.49 142.777,-240.213 145.536,-250.442 151.313,-246.49"/><text xml:space="preserve" text-anchor="start" x="161" y="-259.5" font-family="Open Sans" font-weight="bold" font-size="10.00"> True </text><polyline fill="none" stroke="Black" points="191,-255.5 153.13,-255.5 "/></g><!-- process_block_6 --><g id="node6" class="node"><title>process_block_6</title><polygon fill="url(#g-processzwvbqjugdxtj4i)" stroke="black" points="357.25,-240 212.75,-240 212.75,-204 357.25,-204 357.25,-240"/><text xml:space="preserve" text-anchor="start" x="219.5" y="-219.5" font-family="Open Sans" font-size="10.00">Use the same access token</text></g><!-- ifs_block_4&#45;&gt;process_block_6 --><g id="edge4" class="edge"><title>ifs_block_4->process_block_6</title><path fill="none" stroke="black" d="M201.708,-285.06C216.338,-274.16 236.99,-258.772 254.07,-246.046"/><polygon fill="black" stroke="black" points="256.197,-248.826 262.125,-240.044 252.015,-243.212 256.197,-248.826"/><text xml:space="preserve" text-anchor="start" x="241" y="-259.5" font-family="Open Sans" font-weight="bold" font-size="10.00"> False </text><polyline fill="none" stroke="Black" points="272,-255.5 240.74,-255.5 "/></g><!-- process_block_7 --><g id="node7" class="node"><title>process_block_7</title><polygon fill="url(#g-processzwvbqjugdxtj4i)" stroke="black" points="349,-172 97,-172 97,-136 349,-136 349,-172"/><text xml:space="preserve" text-anchor="start" x="159" y="-157" font-family="Open Sans" font-size="10.00">Create client and youtube </text><text xml:space="preserve" text-anchor="start" x="104" y="-146" font-family="Open Sans" font-size="10.00">data api abject using access token and client info</text></g><!-- process_block_5&#45;&gt;process_block_7 --><g id="edge5" class="edge"><title>process_block_5->process_block_7</title><path fill="none" stroke="black" d="M155.172,-203.659C166.053,-195.853 179.056,-186.525 190.753,-178.134"/><polygon fill="black" stroke="black" points="192.904,-180.898 198.99,-172.225 188.824,-175.21 192.904,-180.898"/></g><!-- process_block_6&#45;&gt;process_block_7 --><g id="edge6" class="edge"><title>process_block_6->process_block_7</title><path fill="none" stroke="black" d="M268.71,-203.659C261.929,-196.441 253.926,-187.921 246.527,-180.044"/><polygon fill="black" stroke="black" points="248.794,-177.346 239.396,-172.454 243.692,-182.139 248.794,-177.346"/></g><!-- process_block_8 --><g id="node8" class="node"><title>process_block_8</title><polygon fill="url(#g-processzwvbqjugdxtj4i)" stroke="black" points="302.25,-104 143.75,-104 143.75,-68 302.25,-68 302.25,-104"/><text xml:space="preserve" text-anchor="start" x="150.5" y="-89" font-family="Open Sans" font-size="10.00">Add video to playlist using the</text><text xml:space="preserve" text-anchor="start" x="184" y="-78" font-family="Open Sans" font-size="10.00">api client object</text></g><!-- process_block_7&#45;&gt;process_block_8 --><g id="edge7" class="edge"><title>process_block_7->process_block_8</title><path fill="none" stroke="black" d="M223,-135.659C223,-129.193 223,-121.682 223,-114.525"/><polygon fill="black" stroke="black" points="226.5,-114.454 223,-104.454 219.5,-114.454 226.5,-114.454"/></g><!-- terminator_block_9 --><g id="node9" class="node"><title>terminator_block_9</title><ellipse fill="url(#g-terminatorzwvbqjugdxtj4i)" stroke="black" cx="223" cy="-18" rx="27" ry="18"/><text xml:space="preserve" text-anchor="start" x="210.5" y="-15.5" font-family="Open Sans" font-size="10.00">Done</text></g><!-- process_block_8&#45;&gt;terminator_block_9 --><g id="edge8" class="edge"><title>process_block_8->terminator_block_9</title><path fill="none" stroke="black" d="M223,-67.6593C223,-61.1928 223,-53.6819 223,-46.5246"/><polygon fill="black" stroke="black" points="226.5,-46.454 223,-36.4541 219.5,-46.4541 226.5,-46.454"/></g></g></svg>