<?xml version="1.0" encoding="UTF-8" standalone="no"?><!DOCTYPE svg PUBLIC "-//W3C//DTD SVG 1.1//EN" "http://www.w3.org/Graphics/SVG/1.1/DTD/svg11.dtd"><!-- Generated by graphviz version 2.35.0 (20140103.1005) --><!-- Title: FlowChart Pages: 1 --><svg width="600pt" height="464pt" viewBox="0.00 0.00 600 464.16" xmlns="http://www.w3.org/2000/svg" xmlns:xlink="http://www.w3.org/1999/xlink"><defs><linearGradient id="g-terminatorg5d5qhvfwjc3di" x1="0%" x2="100%" y1="0%" y2="0%" spreadMethod="pad"><stop offset="0%" stop-color="#ff8787" stop-opacity="1"/><stop offset="100%" stop-color="#ffb9b9" stop-opacity="1"/></linearGradient><linearGradient id="g-decisiong5d5qhvfwjc3di" x1="0%" x2="100%" y1="0%" y2="0%" spreadMethod="pad"><stop offset="0%" stop-color="#ffd287" stop-opacity="1"/><stop offset="100%" stop-color="#ffffb9" stop-opacity="1"/></linearGradient><linearGradient id="g-processg5d5qhvfwjc3di" x1="0%" x2="100%" y1="0%" y2="0%" spreadMethod="pad"><stop offset="0%" stop-color="#99ff99" stop-opacity="1"/><stop offset="100%" stop-color="#cbffcb" stop-opacity="1"/></linearGradient><linearGradient id="g-defaultg5d5qhvfwjc3di" x1="0%" x2="100%" y1="0%" y2="0%" spreadMethod="pad"><stop offset="0%" stop-color="#99ff99" stop-opacity="1"/><stop offset="100%" stop-color="#cbffcb" stop-opacity="1"/></linearGradient><linearGradient id="g-moduleg5d5qhvfwjc3di" x1="0%" x2="100%" y1="0%" y2="0%" spreadMethod="pad"><stop offset="0%" stop-color="#77c1e4" stop-opacity="1"/><stop offset="100%" stop-color="#a9f3ff" stop-opacity="1"/></linearGradient><linearGradient id="g-dataiog5d5qhvfwjc3di" x1="0%" x2="100%" y1="0%" y2="0%" spreadMethod="pad"><stop offset="0%" stop-color="#bebebe" stop-opacity="1"/><stop offset="100%" stop-color="#f0f0f0" stop-opacity="1"/></linearGradient><linearGradient id="g-preparationg5d5qhvfwjc3di" x1="0%" x2="100%" y1="0%" y2="0%" spreadMethod="pad"><stop offset="0%" stop-color="#bebebe" stop-opacity="1"/><stop offset="100%" stop-color="#f0f0f0" stop-opacity="1"/></linearGradient><linearGradient id="g-commentg5d5qhvfwjc3di" x1="0%" x2="100%" y1="0%" y2="0%" spreadMethod="pad"><stop offset="0%" stop-color="#f5f588" stop-opacity="1"/><stop offset="100%" stop-color="#ffffba" stop-opacity="1"/></linearGradient><linearGradient id="g-manualg5d5qhvfwjc3di" x1="0%" x2="100%" y1="0%" y2="0%" spreadMethod="pad"><stop offset="0%" stop-color="#9e78ff" stop-opacity="1"/><stop offset="100%" stop-color="#d0aaff" stop-opacity="1"/></linearGradient><filter id="dropshadowg5d5qhvfwjc3di" height="150%" width="150%"><feGaussianBlur in="SourceAlpha" stdDeviation="3"/><feOffset dx="2" dy="2" result="offsetblur"/><feComponentTransfer/><feMerge><feMergeNode/><feMergeNode in="SourceGraphic"/></feMerge></filter></defs><g id="flowg5d5qhvfwjc3di" class="graph" transform="scale(0.679224 0.679224) rotate(0) translate(4 672)"><title>FlowChart</title><!-- terminator_block_1 --><g id="node1" class="node"><title>terminator_block_1</title><ellipse fill="url(#g-terminatorg5d5qhvfwjc3di)" stroke="black" cx="237" cy="-650" rx="110.12" ry="18"/><text xml:space="preserve" text-anchor="start" x="151.5" y="-647.5" font-family="Open Sans" font-size="10.00">For each content in web_page table</text></g><!-- ifs_block_2 --><g id="node2" class="node"><title>ifs_block_2</title><polygon fill="url(#g-decisiong5d5qhvfwjc3di)" stroke="black" points="237,-600 0.107964,-582 237,-564 473.892,-582 237,-600"/><text xml:space="preserve" text-anchor="start" x="102.5" y="-579.5" font-family="Open Sans" font-size="10.00">check whether the folder with the category_name exists</text></g><!-- terminator_block_1&#45;&gt;ifs_block_2 --><g id="edge1" class="edge"><title>terminator_block_1->ifs_block_2</title><path fill="none" stroke="black" d="M237,-631.659C237,-625.193 237,-617.682 237,-610.525"/><polygon fill="black" stroke="black" points="240.5,-610.454 237,-600.454 233.5,-610.454 240.5,-610.454"/></g><!-- process_block_3 --><g id="node3" class="node"><title>process_block_3</title><polygon fill="url(#g-processg5d5qhvfwjc3di)" stroke="black" points="546,-522 354,-522 354,-486 546,-486 546,-522"/><text xml:space="preserve" text-anchor="start" x="361" y="-501.5" font-family="Open Sans" font-size="10.00">Create category folder of its category</text></g><!-- ifs_block_2&#45;&gt;process_block_3 --><g id="edge2" class="edge"><title>ifs_block_2->process_block_3</title><path fill="none" stroke="black" d="M276.564,-566.883C309.144,-555.258 355.778,-538.619 392.485,-525.522"/><polygon fill="black" stroke="black" points="393.829,-528.758 402.071,-522.101 391.476,-522.166 393.829,-528.758"/><text xml:space="preserve" text-anchor="start" x="357" y="-541.5" font-family="Open Sans" font-weight="bold" font-size="10.00"> False </text><polyline fill="none" stroke="Black" points="388,-537.5 359.691,-537.5 "/></g><!-- process_block_5 --><g id="node5" class="node"><title>process_block_5</title><polygon fill="url(#g-processg5d5qhvfwjc3di)" stroke="black" points="571.25,-454 328.75,-454 328.75,-418 571.25,-418 571.25,-454"/><text xml:space="preserve" text-anchor="start" x="335.5" y="-433.5" font-family="Open Sans" font-size="10.00">Read file contents using file_path and file_name</text></g><!-- process_block_3&#45;&gt;process_block_5 --><g id="edge3" class="edge"><title>process_block_3->process_block_5</title><path fill="none" stroke="black" d="M450,-485.659C450,-479.193 450,-471.682 450,-464.525"/><polygon fill="black" stroke="black" points="453.5,-464.454 450,-454.454 446.5,-464.454 453.5,-464.454"/></g><!-- comment_block_4 --><g id="node4" class="node"><title>comment_block_4</title><polygon fill="url(#g-commentg5d5qhvfwjc3di)" stroke="black" points="573.5,-600 496.5,-600 496.5,-564 579.5,-564 579.5,-594 573.5,-600"/><polyline fill="none" stroke="black" points="573.5,-600 573.5,-594 "/><polyline fill="none" stroke="black" points="579.5,-594 573.5,-594 "/><text xml:space="preserve" text-anchor="start" x="500" y="-583" font-family="Open Sans" font-size="8.00">If exists just proceed</text><text xml:space="preserve" text-anchor="start" x="523.5" y="-574" font-family="Open Sans" font-size="8.00">forward</text></g><!-- comment_block_4&#45;&gt;process_block_3 --><g id="edge13" class="edge"><title>comment_block_4->process_block_3</title><path fill="none" stroke="black" stroke-dasharray="5,2" d="M518.031,-563.754C504.867,-552.385 487.563,-537.441 473.702,-525.47"/><polyline fill="none" stroke="black" points="469.89,-522.177 473.674,-525.445 "/></g><!-- ifs_block_6 --><g id="node6" class="node"><title>ifs_block_6</title><polygon fill="url(#g-decisiong5d5qhvfwjc3di)" stroke="black" points="450,-386 248.055,-368 450,-350 651.945,-368 450,-386"/><text xml:space="preserve" text-anchor="start" x="336.5" y="-365.5" font-family="Open Sans" font-size="10.00">check whether file_path has a string 'shortlinks'</text></g><!-- process_block_5&#45;&gt;ifs_block_6 --><g id="edge4" class="edge"><title>process_block_5->ifs_block_6</title><path fill="none" stroke="black" d="M450,-417.659C450,-411.193 450,-403.682 450,-396.525"/><polygon fill="black" stroke="black" points="453.5,-396.454 450,-386.454 446.5,-396.454 453.5,-396.454"/></g><!-- process_block_7 --><g id="node7" class="node"><title>process_block_7</title><polygon fill="url(#g-processg5d5qhvfwjc3di)" stroke="black" points="475.25,-308 284.75,-308 284.75,-272 475.25,-272 475.25,-308"/><text xml:space="preserve" text-anchor="start" x="291.5" y="-287.5" font-family="Open Sans" font-size="10.00">Add PERMALINK to YAML frontmatter</text></g><!-- ifs_block_6&#45;&gt;process_block_7 --><g id="edge5" class="edge"><title>ifs_block_6->process_block_7</title><path fill="none" stroke="black" d="M435.496,-351.253C425.969,-340.91 413.315,-327.171 402.496,-315.424"/><polygon fill="black" stroke="black" points="405.052,-313.033 395.703,-308.048 399.903,-317.775 405.052,-313.033"/><text xml:space="preserve" text-anchor="start" x="420" y="-327.5" font-family="Open Sans" font-weight="bold" font-size="10.00"> True </text><polyline fill="none" stroke="Black" points="450,-323.5 409.807,-323.5 "/></g><!-- process_block_8 --><g id="node8" class="node"><title>process_block_8</title><polygon fill="url(#g-processg5d5qhvfwjc3di)" stroke="black" points="716,-308 498,-308 498,-272 716,-272 716,-308"/><text xml:space="preserve" text-anchor="start" x="505" y="-287.5" font-family="Open Sans" font-size="10.00">Add YAML frontmatter without PERMALINK</text></g><!-- ifs_block_6&#45;&gt;process_block_8 --><g id="edge6" class="edge"><title>ifs_block_6->process_block_8</title><path fill="none" stroke="black" d="M479.9,-352.526C503.298,-341.2 536.194,-325.276 562.656,-312.466"/><polygon fill="black" stroke="black" points="564.246,-315.585 571.722,-308.077 561.196,-309.284 564.246,-315.585"/><text xml:space="preserve" text-anchor="start" x="538" y="-327.5" font-family="Open Sans" font-weight="bold" font-size="10.00"> False </text><polyline fill="none" stroke="Black" points="569,-323.5 541.852,-323.5 "/></g><!-- process_block_9 --><g id="node9" class="node"><title>process_block_9</title><polygon fill="url(#g-processg5d5qhvfwjc3di)" stroke="black" points="653.25,-240 382.75,-240 382.75,-204 653.25,-204 653.25,-240"/><text xml:space="preserve" text-anchor="start" x="389.5" y="-219.5" font-family="Open Sans" font-size="10.00">Open a file within category folder which was created </text></g><!-- process_block_7&#45;&gt;process_block_9 --><g id="edge7" class="edge"><title>process_block_7->process_block_9</title><path fill="none" stroke="black" d="M415.898,-271.832C433.387,-263.467 454.595,-253.324 473.141,-244.454"/><polygon fill="black" stroke="black" points="474.771,-247.555 482.282,-240.082 471.751,-241.24 474.771,-247.555"/></g><!-- process_block_8&#45;&gt;process_block_9 --><g id="edge8" class="edge"><title>process_block_8->process_block_9</title><path fill="none" stroke="black" d="M583.616,-271.659C573.192,-263.929 560.755,-254.706 549.526,-246.379"/><polygon fill="black" stroke="black" points="551.345,-243.37 541.228,-240.225 547.175,-248.993 551.345,-243.37"/></g><!-- process_block_10 --><g id="node10" class="node"><title>process_block_10</title><polygon fill="url(#g-processg5d5qhvfwjc3di)" stroke="black" points="729.25,-172 598.75,-172 598.75,-136 729.25,-136 729.25,-172"/><text xml:space="preserve" text-anchor="start" x="605.5" y="-151.5" font-family="Open Sans" font-size="10.00">Write YAML front matter</text></g><!-- process_block_9&#45;&gt;process_block_10 --><g id="edge9" class="edge"><title>process_block_9->process_block_10</title><path fill="none" stroke="black" d="M555.979,-203.832C574.651,-195.391 597.33,-185.139 617.077,-176.212"/><polygon fill="black" stroke="black" points="618.541,-179.391 626.212,-172.082 615.658,-173.012 618.541,-179.391"/></g><!-- process_block_12 --><g id="node12" class="node"><title>process_block_12</title><polygon fill="url(#g-processg5d5qhvfwjc3di)" stroke="black" points="818.5,-104 713.5,-104 713.5,-68 818.5,-68 818.5,-104"/><text xml:space="preserve" text-anchor="start" x="720" y="-83.5" font-family="Open Sans" font-size="10.00">Write file contents </text></g><!-- process_block_10&#45;&gt;process_block_12 --><g id="edge10" class="edge"><title>process_block_10->process_block_12</title><path fill="none" stroke="black" d="M690.533,-135.832C702.929,-127.811 717.852,-118.155 731.144,-109.554"/><polygon fill="black" stroke="black" points="733.105,-112.454 739.6,-104.082 729.303,-106.577 733.105,-112.454"/></g><!-- comment_block_11 --><g id="node11" class="node"><title>comment_block_11</title><polygon fill="url(#g-commentg5d5qhvfwjc3di)" stroke="black" points="764.25,-240 675.75,-240 675.75,-204 770.25,-204 770.25,-234 764.25,-240"/><polyline fill="none" stroke="black" points="764.25,-240 764.25,-234 "/><polyline fill="none" stroke="black" points="770.25,-234 764.25,-234 "/><text xml:space="preserve" text-anchor="start" x="679.5" y="-223" font-family="Open Sans" font-size="8.00">Either with Permalink or</text><text xml:space="preserve" text-anchor="start" x="688.5" y="-214" font-family="Open Sans" font-size="8.00">with out permalink</text></g><!-- comment_block_11&#45;&gt;process_block_10 --><g id="edge14" class="edge"><title>comment_block_11->process_block_10</title><path fill="none" stroke="black" stroke-dasharray="5,2" d="M707.498,-203.659C700.105,-195.388 691.183,-185.409 683.35,-176.645"/><polyline fill="none" stroke="black" points="679.603,-172.454 682.935,-176.182 "/></g><!-- terminator_block_14 --><g id="node14" class="node"><title>terminator_block_14</title><ellipse fill="url(#g-terminatorg5d5qhvfwjc3di)" stroke="black" cx="766" cy="-18" rx="99.2261" ry="18"/><text xml:space="preserve" text-anchor="start" x="689.5" y="-15.5" font-family="Open Sans" font-size="10.00">Close the file and move to next </text></g><!-- process_block_12&#45;&gt;terminator_block_14 --><g id="edge11" class="edge"><title>process_block_12->terminator_block_14</title><path fill="none" stroke="black" d="M766,-67.6593C766,-61.1928 766,-53.6819 766,-46.5246"/><polygon fill="black" stroke="black" points="769.5,-46.454 766,-36.4541 762.5,-46.4541 769.5,-46.454"/></g><!-- comment_block_13 --><g id="node13" class="node"><title>comment_block_13</title><polygon fill="url(#g-commentg5d5qhvfwjc3di)" stroke="black" points="862.25,-172 751.75,-172 751.75,-136 868.25,-136 868.25,-166 862.25,-172"/><polyline fill="none" stroke="black" points="862.25,-172 862.25,-166 "/><polyline fill="none" stroke="black" points="868.25,-166 862.25,-166 "/><text xml:space="preserve" text-anchor="start" x="755.5" y="-159.5" font-family="Open Sans" font-size="8.00">Contents which are read from</text><text xml:space="preserve" text-anchor="start" x="786" y="-150.5" font-family="Open Sans" font-size="8.00">file_path and</text><text xml:space="preserve" text-anchor="start" x="784.5" y="-141.5" font-family="Open Sans" font-size="8.00">and file_name</text></g><!-- comment_block_13&#45;&gt;process_block_12 --><g id="edge12" class="edge"><title>comment_block_13->process_block_12</title><path fill="none" stroke="black" stroke-dasharray="5,2" d="M798.44,-135.659C792.925,-127.388 786.272,-117.409 780.43,-108.645"/><polyline fill="none" stroke="black" points="777.636,-104.454 780.41,-108.614 "/></g></g></svg>