<?xml version="1.0" encoding="UTF-8" standalone="no"?><!DOCTYPE svg PUBLIC "-//W3C//DTD SVG 1.1//EN" "http://www.w3.org/Graphics/SVG/1.1/DTD/svg11.dtd"><!-- Generated by graphviz version 2.35.0 (20140103.1005) --><!-- Title: FlowChart Pages: 1 --><svg width="440pt" height="569pt" viewBox="0.00 0.00 440 569" xmlns="http://www.w3.org/2000/svg" xmlns:xlink="http://www.w3.org/1999/xlink"><defs><linearGradient id="g-terminatormzjjoq3ka6pqfr" x1="0%" x2="100%" y1="0%" y2="0%" spreadMethod="pad"><stop offset="0%" stop-color="#ff8787" stop-opacity="1"/><stop offset="100%" stop-color="#ffb9b9" stop-opacity="1"/></linearGradient><linearGradient id="g-decisionmzjjoq3ka6pqfr" x1="0%" x2="100%" y1="0%" y2="0%" spreadMethod="pad"><stop offset="0%" stop-color="#ffd287" stop-opacity="1"/><stop offset="100%" stop-color="#ffffb9" stop-opacity="1"/></linearGradient><linearGradient id="g-processmzjjoq3ka6pqfr" x1="0%" x2="100%" y1="0%" y2="0%" spreadMethod="pad"><stop offset="0%" stop-color="#99ff99" stop-opacity="1"/><stop offset="100%" stop-color="#cbffcb" stop-opacity="1"/></linearGradient><linearGradient id="g-defaultmzjjoq3ka6pqfr" x1="0%" x2="100%" y1="0%" y2="0%" spreadMethod="pad"><stop offset="0%" stop-color="#99ff99" stop-opacity="1"/><stop offset="100%" stop-color="#cbffcb" stop-opacity="1"/></linearGradient><linearGradient id="g-modulemzjjoq3ka6pqfr" x1="0%" x2="100%" y1="0%" y2="0%" spreadMethod="pad"><stop offset="0%" stop-color="#77c1e4" stop-opacity="1"/><stop offset="100%" stop-color="#a9f3ff" stop-opacity="1"/></linearGradient><linearGradient id="g-dataiomzjjoq3ka6pqfr" x1="0%" x2="100%" y1="0%" y2="0%" spreadMethod="pad"><stop offset="0%" stop-color="#bebebe" stop-opacity="1"/><stop offset="100%" stop-color="#f0f0f0" stop-opacity="1"/></linearGradient><linearGradient id="g-preparationmzjjoq3ka6pqfr" x1="0%" x2="100%" y1="0%" y2="0%" spreadMethod="pad"><stop offset="0%" stop-color="#bebebe" stop-opacity="1"/><stop offset="100%" stop-color="#f0f0f0" stop-opacity="1"/></linearGradient><linearGradient id="g-commentmzjjoq3ka6pqfr" x1="0%" x2="100%" y1="0%" y2="0%" spreadMethod="pad"><stop offset="0%" stop-color="#f5f588" stop-opacity="1"/><stop offset="100%" stop-color="#ffffba" stop-opacity="1"/></linearGradient><linearGradient id="g-manualmzjjoq3ka6pqfr" x1="0%" x2="100%" y1="0%" y2="0%" spreadMethod="pad"><stop offset="0%" stop-color="#9e78ff" stop-opacity="1"/><stop offset="100%" stop-color="#d0aaff" stop-opacity="1"/></linearGradient><filter id="dropshadowmzjjoq3ka6pqfr" height="150%" width="150%"><feGaussianBlur in="SourceAlpha" stdDeviation="3"/><feOffset dx="2" dy="2" result="offsetblur"/><feComponentTransfer/><feMerge><feMergeNode/><feMergeNode in="SourceGraphic"/></feMerge></filter></defs><g id="flowmzjjoq3ka6pqfr" class="graph" transform="scale(1 1) rotate(0) translate(4 560)"><title>FlowChart</title><!-- terminator_block_1 --><g id="node1" class="node"><title>terminator_block_1</title><ellipse fill="url(#g-terminatormzjjoq3ka6pqfr)" stroke="black" cx="330" cy="-474" rx="87.1833" ry="18"/><text xml:space="preserve" text-anchor="start" x="264" y="-471.5" font-family="Open Sans" font-size="10.00">Read the text file with links</text></g><!-- process_block_3 --><g id="node3" class="node"><title>process_block_3</title><polygon fill="url(#g-processmzjjoq3ka6pqfr)" stroke="black" points="392.25,-428 267.75,-428 267.75,-392 392.25,-392 392.25,-428"/><text xml:space="preserve" text-anchor="start" x="274.5" y="-407.5" font-family="Open Sans" font-size="10.00">For each line in the file</text></g><!-- terminator_block_1&#45;&gt;process_block_3 --><g id="edge1" class="edge"><title>terminator_block_1->process_block_3</title><path fill="none" stroke="black" d="M330,-455.73C330,-450.355 330,-444.29 330,-438.401"/><polygon fill="black" stroke="black" points="333.5,-438.178 330,-428.178 326.5,-438.178 333.5,-438.178"/></g><!-- comment_block_2 --><g id="node2" class="node"><title>comment_block_2</title><polygon fill="url(#g-commentmzjjoq3ka6pqfr)" stroke="black" points="368.25,-556 285.75,-556 285.75,-520 374.25,-520 374.25,-550 368.25,-556"/><polyline fill="none" stroke="black" points="368.25,-556 368.25,-550 "/><polyline fill="none" stroke="black" points="374.25,-550 368.25,-550 "/><text xml:space="preserve" text-anchor="start" x="289.5" y="-539" font-family="Open Sans" font-size="8.00">lets dump all links in a</text><text xml:space="preserve" text-anchor="start" x="316.5" y="-530" font-family="Open Sans" font-size="8.00">text file</text></g><!-- comment_block_2&#45;&gt;terminator_block_1 --><g id="edge12" class="edge"><title>comment_block_2->terminator_block_1</title><path fill="none" stroke="black" stroke-dasharray="5,2" d="M330,-519.73C330,-512.877 330,-504.903 330,-497.601"/><polyline fill="none" stroke="black" points="330,-492.178 330,-497.178 "/></g><!-- process_block_4 --><g id="node4" class="node"><title>process_block_4</title><polygon fill="url(#g-processmzjjoq3ka6pqfr)" stroke="black" points="396,-364 264,-364 264,-328 396,-328 396,-364"/><text xml:space="preserve" text-anchor="start" x="271" y="-343.5" font-family="Open Sans" font-size="10.00">call that URI in each line</text></g><!-- process_block_3&#45;&gt;process_block_4 --><g id="edge2" class="edge"><title>process_block_3->process_block_4</title><path fill="none" stroke="black" d="M330,-391.73C330,-386.355 330,-380.29 330,-374.401"/><polygon fill="black" stroke="black" points="333.5,-374.178 330,-364.178 326.5,-374.178 333.5,-374.178"/></g><!-- ifs_block_5 --><g id="node5" class="node"><title>ifs_block_5</title><polygon fill="url(#g-decisionmzjjoq3ka6pqfr)" stroke="black" points="330,-296 232.897,-278 330,-260 427.103,-278 330,-296"/><text xml:space="preserve" text-anchor="start" x="279.5" y="-275.5" font-family="Open Sans" font-size="10.00">response_code = 200</text></g><!-- process_block_4&#45;&gt;ifs_block_5 --><g id="edge3" class="edge"><title>process_block_4->ifs_block_5</title><path fill="none" stroke="black" d="M330,-327.659C330,-321.193 330,-313.682 330,-306.525"/><polygon fill="black" stroke="black" points="333.5,-306.454 330,-296.454 326.5,-306.454 333.5,-306.454"/></g><!-- process_block_6 --><g id="node6" class="node"><title>process_block_6</title><polygon fill="url(#g-processmzjjoq3ka6pqfr)" stroke="black" points="253,-228 101,-228 101,-192 253,-192 253,-228"/><text xml:space="preserve" text-anchor="start" x="108" y="-207.5" font-family="Open Sans" font-size="10.00">get the body of the response</text></g><!-- ifs_block_5&#45;&gt;process_block_6 --><g id="edge4" class="edge"><title>ifs_block_5->process_block_6</title><path fill="none" stroke="black" d="M302.293,-265.048C281.065,-255.891 251.235,-243.023 226.006,-232.14"/><polygon fill="black" stroke="black" points="227.158,-228.825 216.589,-228.078 224.385,-235.252 227.158,-228.825"/><text xml:space="preserve" text-anchor="start" x="236.402" y="-250.546" font-family="Open Sans" font-weight="bold" font-size="10.00"> Yes </text><polyline fill="none" stroke="Black" points="259.402,-246.546 260.655,-246.546 "/></g><!-- process_block_11 --><g id="node11" class="node"><title>process_block_11</title><polygon fill="url(#g-processmzjjoq3ka6pqfr)" stroke="black" points="426,-164 234,-164 234,-128 426,-128 426,-164"/><text xml:space="preserve" text-anchor="start" x="241" y="-143.5" font-family="Open Sans" font-size="10.00">log to migration log file with the URL </text></g><!-- ifs_block_5&#45;&gt;process_block_11 --><g id="edge7" class="edge"><title>ifs_block_5->process_block_11</title><path fill="none" stroke="black" d="M330,-259.737C330,-237.981 330,-200.322 330,-174.564"/><polygon fill="black" stroke="black" points="333.5,-174.334 330,-164.334 326.5,-174.334 333.5,-174.334"/><text xml:space="preserve" text-anchor="start" x="310" y="-216.154" font-family="Open Sans" font-weight="bold" font-size="10.00"> No </text><polyline fill="none" stroke="Black" points="330,-212.154 330,-212.154 "/></g><!-- process_block_8 --><g id="node8" class="node"><title>process_block_8</title><polygon fill="url(#g-processmzjjoq3ka6pqfr)" stroke="black" points="202,-164 20,-164 20,-128 202,-128 202,-164"/><text xml:space="preserve" text-anchor="start" x="27" y="-143.5" font-family="Open Sans" font-size="10.00">convert body content to markdown</text></g><!-- process_block_6&#45;&gt;process_block_8 --><g id="edge5" class="edge"><title>process_block_6->process_block_8</title><path fill="none" stroke="black" d="M158.615,-191.73C151.893,-185.414 144.156,-178.147 136.9,-171.33"/><polygon fill="black" stroke="black" points="138.971,-168.474 129.286,-164.178 134.178,-173.576 138.971,-168.474"/></g><!-- comment_block_7 --><g id="node7" class="node"><title>comment_block_7</title><polygon fill="url(#g-commentmzjjoq3ka6pqfr)" stroke="black" points="194.25,-300 95.75,-300 95.75,-256 200.25,-256 200.25,-294 194.25,-300"/><polyline fill="none" stroke="black" points="194.25,-300 194.25,-294 "/><polyline fill="none" stroke="black" points="200.25,-294 194.25,-294 "/><text xml:space="preserve" text-anchor="start" x="99.5" y="-288" font-family="Open Sans" font-size="8.00">you can directly get or you</text><text xml:space="preserve" text-anchor="start" x="134" y="-279" font-family="Open Sans" font-size="8.00">can use</text><text xml:space="preserve" text-anchor="start" x="124" y="-270" font-family="Open Sans" font-size="8.00">Nokogiri gem</text><text xml:space="preserve" text-anchor="start" x="115.5" y="-261" font-family="Open Sans" font-size="8.00">to parse the DOM</text></g><!-- comment_block_7&#45;&gt;process_block_6 --><g id="edge11" class="edge"><title>comment_block_7->process_block_6</title><path fill="none" stroke="black" stroke-dasharray="5,2" d="M157.335,-255.754C160.51,-248.528 164.065,-240.437 167.27,-233.143"/><polyline fill="none" stroke="black" points="169.424,-228.241 167.413,-232.819 "/></g><!-- process_block_10 --><g id="node10" class="node"><title>process_block_10</title><polygon fill="url(#g-processmzjjoq3ka6pqfr)" stroke="black" points="244.25,-100 47.75,-100 47.75,-64 244.25,-64 244.25,-100"/><text xml:space="preserve" text-anchor="start" x="54.5" y="-79.5" font-family="Open Sans" font-size="10.00">create a file in the milacron codebase</text></g><!-- process_block_8&#45;&gt;process_block_10 --><g id="edge6" class="edge"><title>process_block_8->process_block_10</title><path fill="none" stroke="black" d="M120.749,-127.73C124.011,-121.952 127.723,-115.377 131.278,-109.08"/><polygon fill="black" stroke="black" points="134.435,-110.607 136.303,-100.178 128.339,-107.165 134.435,-110.607"/></g><!-- comment_block_9 --><g id="node9" class="node"><title>comment_block_9</title><polygon fill="url(#g-commentmzjjoq3ka6pqfr)" stroke="black" points="62.25,-228 -0.25,-228 -0.25,-192 68.25,-192 68.25,-222 62.25,-228"/><polyline fill="none" stroke="black" points="62.25,-228 62.25,-222 "/><polyline fill="none" stroke="black" points="68.25,-222 62.25,-222 "/><text xml:space="preserve" text-anchor="start" x="14" y="-215.5" font-family="Open Sans" font-size="8.00">we can use</text><text xml:space="preserve" text-anchor="start" x="3.5" y="-206.5" font-family="Open Sans" font-size="8.00">html2markdown</text><text xml:space="preserve" text-anchor="start" x="7" y="-197.5" font-family="Open Sans" font-size="8.00">gem to do that</text></g><!-- comment_block_9&#45;&gt;process_block_8 --><g id="edge10" class="edge"><title>comment_block_9->process_block_8</title><path fill="none" stroke="black" stroke-dasharray="5,2" d="M55.4488,-191.73C64.7937,-184.205 75.8181,-175.328 85.5723,-167.474"/><polyline fill="none" stroke="black" points="89.6662,-164.178 85.7718,-167.314 "/></g><!-- terminator_block_12 --><g id="node12" class="node"><title>terminator_block_12</title><ellipse fill="url(#g-terminatormzjjoq3ka6pqfr)" stroke="black" cx="229" cy="-18" rx="27" ry="18"/><text xml:space="preserve" text-anchor="start" x="217" y="-15.5" font-family="Open Sans" font-size="10.00">done</text></g><!-- process_block_10&#45;&gt;terminator_block_12 --><g id="edge8" class="edge"><title>process_block_10->terminator_block_12</title><path fill="none" stroke="black" d="M169.12,-63.7295C179.718,-55.8132 192.319,-46.4 203.222,-38.2558"/><polygon fill="black" stroke="black" points="205.614,-40.8378 211.531,-32.0492 201.425,-35.2297 205.614,-40.8378"/></g><!-- process_block_11&#45;&gt;terminator_block_12 --><g id="edge9" class="edge"><title>process_block_11->terminator_block_12</title><path fill="none" stroke="black" d="M316.168,-127.744C298.403,-105.582 267.502,-67.0323 247.666,-42.2862"/><polygon fill="black" stroke="black" points="250.383,-40.0804 241.398,-34.4668 244.922,-44.4586 250.383,-40.0804"/></g></g></svg>