<?xml version="1.0" encoding="UTF-8" standalone="no"?><!DOCTYPE svg PUBLIC "-//W3C//DTD SVG 1.1//EN" "http://www.w3.org/Graphics/SVG/1.1/DTD/svg11.dtd"><!-- Generated by graphviz version 2.35.0 (20140103.1005) --><!-- Title: FlowChart Pages: 1 --><svg width="443pt" height="617pt" viewBox="0.00 0.00 443 617" xmlns="http://www.w3.org/2000/svg" xmlns:xlink="http://www.w3.org/1999/xlink"><defs><linearGradient id="g-terminatori4tonxhwvims4i" x1="0%" x2="100%" y1="0%" y2="0%" spreadMethod="pad"><stop offset="0%" stop-color="#ff8787" stop-opacity="1"/><stop offset="100%" stop-color="#ffb9b9" stop-opacity="1"/></linearGradient><linearGradient id="g-decisioni4tonxhwvims4i" x1="0%" x2="100%" y1="0%" y2="0%" spreadMethod="pad"><stop offset="0%" stop-color="#ffd287" stop-opacity="1"/><stop offset="100%" stop-color="#ffffb9" stop-opacity="1"/></linearGradient><linearGradient id="g-processi4tonxhwvims4i" x1="0%" x2="100%" y1="0%" y2="0%" spreadMethod="pad"><stop offset="0%" stop-color="#99ff99" stop-opacity="1"/><stop offset="100%" stop-color="#cbffcb" stop-opacity="1"/></linearGradient><linearGradient id="g-defaulti4tonxhwvims4i" x1="0%" x2="100%" y1="0%" y2="0%" spreadMethod="pad"><stop offset="0%" stop-color="#99ff99" stop-opacity="1"/><stop offset="100%" stop-color="#cbffcb" stop-opacity="1"/></linearGradient><linearGradient id="g-modulei4tonxhwvims4i" x1="0%" x2="100%" y1="0%" y2="0%" spreadMethod="pad"><stop offset="0%" stop-color="#77c1e4" stop-opacity="1"/><stop offset="100%" stop-color="#a9f3ff" stop-opacity="1"/></linearGradient><linearGradient id="g-dataioi4tonxhwvims4i" x1="0%" x2="100%" y1="0%" y2="0%" spreadMethod="pad"><stop offset="0%" stop-color="#bebebe" stop-opacity="1"/><stop offset="100%" stop-color="#f0f0f0" stop-opacity="1"/></linearGradient><linearGradient id="g-preparationi4tonxhwvims4i" x1="0%" x2="100%" y1="0%" y2="0%" spreadMethod="pad"><stop offset="0%" stop-color="#bebebe" stop-opacity="1"/><stop offset="100%" stop-color="#f0f0f0" stop-opacity="1"/></linearGradient><linearGradient id="g-commenti4tonxhwvims4i" x1="0%" x2="100%" y1="0%" y2="0%" spreadMethod="pad"><stop offset="0%" stop-color="#f5f588" stop-opacity="1"/><stop offset="100%" stop-color="#ffffba" stop-opacity="1"/></linearGradient><linearGradient id="g-manuali4tonxhwvims4i" x1="0%" x2="100%" y1="0%" y2="0%" spreadMethod="pad"><stop offset="0%" stop-color="#9e78ff" stop-opacity="1"/><stop offset="100%" stop-color="#d0aaff" stop-opacity="1"/></linearGradient><filter id="dropshadowi4tonxhwvims4i" height="150%" width="150%"><feGaussianBlur in="SourceAlpha" stdDeviation="3"/><feOffset dx="2" dy="2" result="offsetblur"/><feComponentTransfer/><feMerge><feMergeNode/><feMergeNode in="SourceGraphic"/></feMerge></filter></defs><g id="flowi4tonxhwvims4i" class="graph" transform="scale(1 1) rotate(0) translate(4 608)"><title>FlowChart</title><!-- terminator_block_1 --><g id="node1" class="node"><title>terminator_block_1</title><ellipse fill="url(#g-terminatori4tonxhwvims4i)" stroke="black" cx="353" cy="-516" rx="77.1724" ry="18"/><text xml:space="preserve" text-anchor="start" x="295.5" y="-513.5" font-family="Open Sans" font-size="10.00">Select the file to upload</text></g><!-- process_block_3 --><g id="node3" class="node"><title>process_block_3</title><polygon fill="url(#g-processi4tonxhwvims4i)" stroke="black" points="333,-460 205,-460 205,-424 333,-424 333,-460"/><text xml:space="preserve" text-anchor="start" x="212" y="-439.5" font-family="Open Sans" font-size="10.00">Create the client object</text></g><!-- terminator_block_1&#45;&gt;process_block_3 --><g id="edge1" class="edge"><title>terminator_block_1->process_block_3</title><path fill="none" stroke="black" d="M333.518,-498.301C322.545,-488.895 308.66,-476.995 296.585,-466.644"/><polygon fill="black" stroke="black" points="298.83,-463.959 288.96,-460.109 294.275,-469.274 298.83,-463.959"/></g><!-- comment_block_2 --><g id="node2" class="node"><title>comment_block_2</title><polygon fill="url(#g-commenti4tonxhwvims4i)" stroke="black" points="399.25,-604 300.75,-604 300.75,-568 405.25,-568 405.25,-598 399.25,-604"/><polyline fill="none" stroke="black" points="399.25,-604 399.25,-598 "/><polyline fill="none" stroke="black" points="405.25,-598 399.25,-598 "/><text xml:space="preserve" text-anchor="start" x="304.5" y="-582.5" font-family="Open Sans" font-size="8.00">folder contains music files</text></g><!-- comment_block_2&#45;&gt;terminator_block_1 --><g id="edge11" class="edge"><title>comment_block_2->terminator_block_1</title><path fill="none" stroke="black" stroke-dasharray="5,2" d="M353,-567.841C353,-559.289 353,-548.837 353,-539.638"/><polyline fill="none" stroke="black" points="353,-534.39 353,-539.39 "/></g><!-- process_block_5 --><g id="node5" class="node"><title>process_block_5</title><polygon fill="url(#g-processi4tonxhwvims4i)" stroke="black" points="299.25,-386 78.75,-386 78.75,-350 299.25,-350 299.25,-386"/><text xml:space="preserve" text-anchor="start" x="85.5" y="-365.5" font-family="Open Sans" font-size="10.00">Add to tracks and get the response of track</text></g><!-- process_block_3&#45;&gt;process_block_5 --><g id="edge2" class="edge"><title>process_block_3->process_block_5</title><path fill="none" stroke="black" d="M250.041,-423.937C239.755,-414.679 226.873,-403.086 215.598,-392.938"/><polygon fill="black" stroke="black" points="217.874,-390.278 208.1,-386.19 213.192,-395.481 217.874,-390.278"/></g><!-- comment_block_4 --><g id="node4" class="node"><title>comment_block_4</title><polygon fill="url(#g-commenti4tonxhwvims4i)" stroke="black" points="223.25,-534 140.75,-534 140.75,-498 229.25,-498 229.25,-528 223.25,-534"/><polyline fill="none" stroke="black" points="223.25,-534 223.25,-528 "/><polyline fill="none" stroke="black" points="229.25,-528 223.25,-528 "/><text xml:space="preserve" text-anchor="start" x="144.5" y="-517" font-family="Open Sans" font-size="8.00">with sound cloud app</text><text xml:space="preserve" text-anchor="start" x="165" y="-508" font-family="Open Sans" font-size="8.00">credentials</text></g><!-- comment_block_4&#45;&gt;process_block_3 --><g id="edge9" class="edge"><title>comment_block_4->process_block_3</title><path fill="none" stroke="black" stroke-dasharray="5,2" d="M204.907,-497.937C216.954,-487.611 232.391,-474.379 245.096,-463.489"/><polyline fill="none" stroke="black" points="248.945,-460.19 245.149,-463.444 "/></g><!-- process_block_7 --><g id="node7" class="node"><title>process_block_7</title><polygon fill="url(#g-processi4tonxhwvims4i)" stroke="black" points="230.5,-316 147.5,-316 147.5,-280 230.5,-280 230.5,-316"/><text xml:space="preserve" text-anchor="start" x="154" y="-295.5" font-family="Open Sans" font-size="10.00">Create playlist</text></g><!-- process_block_5&#45;&gt;process_block_7 --><g id="edge3" class="edge"><title>process_block_5->process_block_7</title><path fill="none" stroke="black" d="M189,-349.841C189,-342.808 189,-334.489 189,-326.639"/><polygon fill="black" stroke="black" points="192.5,-326.39 189,-316.39 185.5,-326.39 192.5,-326.39"/></g><!-- comment_block_6 --><g id="node6" class="node"><title>comment_block_6</title><polygon fill="url(#g-commenti4tonxhwvims4i)" stroke="black" points="152.5,-464 61.5,-464 61.5,-420 158.5,-420 158.5,-458 152.5,-464"/><polyline fill="none" stroke="black" points="152.5,-464 152.5,-458 "/><polyline fill="none" stroke="black" points="158.5,-458 152.5,-458 "/><text xml:space="preserve" text-anchor="start" x="78" y="-452" font-family="Open Sans" font-size="8.00">contains title and</text><text xml:space="preserve" text-anchor="start" x="89" y="-443" font-family="Open Sans" font-size="8.00">description</text><text xml:space="preserve" text-anchor="start" x="65" y="-434" font-family="Open Sans" font-size="8.00">this object is used for all</text><text xml:space="preserve" text-anchor="start" x="101" y="-425" font-family="Open Sans" font-size="8.00">API's</text></g><!-- comment_block_6&#45;&gt;process_block_5 --><g id="edge10" class="edge"><title>comment_block_6->process_block_5</title><path fill="none" stroke="black" stroke-dasharray="5,2" d="M133.275,-419.787C143.734,-410.256 156.028,-399.05 166.405,-389.593"/><polyline fill="none" stroke="black" points="170.134,-386.194 166.439,-389.562 "/></g><!-- process_block_8 --><g id="node8" class="node"><title>process_block_8</title><polygon fill="url(#g-processi4tonxhwvims4i)" stroke="black" points="200.25,-246 37.75,-246 37.75,-210 200.25,-210 200.25,-246"/><text xml:space="preserve" text-anchor="start" x="44.5" y="-225.5" font-family="Open Sans" font-size="10.00">Copy uploaded track to playlist</text></g><!-- process_block_7&#45;&gt;process_block_8 --><g id="edge4" class="edge"><title>process_block_7->process_block_8</title><path fill="none" stroke="black" d="M171.336,-279.841C163.109,-271.849 153.173,-262.196 144.178,-253.458"/><polygon fill="black" stroke="black" points="146.513,-250.848 136.902,-246.39 141.636,-255.869 146.513,-250.848"/></g><!-- process_block_10 --><g id="node10" class="node"><title>process_block_10</title><polygon fill="url(#g-processi4tonxhwvims4i)" stroke="black" points="216.5,-176 21.5,-176 21.5,-140 216.5,-140 216.5,-176"/><text xml:space="preserve" text-anchor="start" x="28" y="-155.5" font-family="Open Sans" font-size="10.00">Use embed api to get the iframe code</text></g><!-- process_block_8&#45;&gt;process_block_10 --><g id="edge5" class="edge"><title>process_block_8->process_block_10</title><path fill="none" stroke="black" d="M119,-209.841C119,-202.808 119,-194.489 119,-186.639"/><polygon fill="black" stroke="black" points="122.5,-186.39 119,-176.39 115.5,-186.39 122.5,-186.39"/></g><!-- comment_block_9 --><g id="node9" class="node"><title>comment_block_9</title><polygon fill="url(#g-commenti4tonxhwvims4i)" stroke="black" points="94.25,-316 -0.25,-316 -0.25,-280 100.25,-280 100.25,-310 94.25,-316"/><polyline fill="none" stroke="black" points="94.25,-316 94.25,-310 "/><polyline fill="none" stroke="black" points="100.25,-310 94.25,-310 "/><text xml:space="preserve" text-anchor="start" x="3.5" y="-299" font-family="Open Sans" font-size="8.00">after receiving the playlist</text><text xml:space="preserve" text-anchor="start" x="28" y="-290" font-family="Open Sans" font-size="8.00">information</text></g><!-- comment_block_9&#45;&gt;process_block_8 --><g id="edge8" class="edge"><title>comment_block_9->process_block_8</title><path fill="none" stroke="black" stroke-dasharray="5,2" d="M67.4116,-279.841C76.5752,-270.81 87.8907,-259.658 97.587,-250.103"/><polyline fill="none" stroke="black" points="101.354,-246.39 97.7927,-249.9 "/></g><!-- process_block_11 --><g id="node11" class="node"><title>process_block_11</title><polygon fill="url(#g-processi4tonxhwvims4i)" stroke="black" points="206.25,-106 31.75,-106 31.75,-70 206.25,-70 206.25,-106"/><text xml:space="preserve" text-anchor="start" x="38.5" y="-85.5" font-family="Open Sans" font-size="10.00">store the audio information in DB</text></g><!-- process_block_10&#45;&gt;process_block_11 --><g id="edge6" class="edge"><title>process_block_10->process_block_11</title><path fill="none" stroke="black" d="M119,-139.841C119,-132.808 119,-124.489 119,-116.639"/><polygon fill="black" stroke="black" points="122.5,-116.39 119,-106.39 115.5,-116.39 122.5,-116.39"/></g><!-- terminator_block_12 --><g id="node12" class="node"><title>terminator_block_12</title><ellipse fill="url(#g-terminatori4tonxhwvims4i)" stroke="black" cx="119" cy="-18" rx="109.237" ry="18"/><text xml:space="preserve" text-anchor="start" x="34" y="-15.5" font-family="Open Sans" font-size="10.00">Follow the procedure for all audio's</text></g><!-- process_block_11&#45;&gt;terminator_block_12 --><g id="edge7" class="edge"><title>process_block_11->terminator_block_12</title><path fill="none" stroke="black" d="M119,-69.8407C119,-62.8079 119,-54.4889 119,-46.6391"/><polygon fill="black" stroke="black" points="122.5,-46.3903 119,-36.3903 115.5,-46.3903 122.5,-46.3903"/></g></g></svg>