<?xml version="1.0" encoding="UTF-8" standalone="no"?><!DOCTYPE svg PUBLIC "-//W3C//DTD SVG 1.1//EN" "http://www.w3.org/Graphics/SVG/1.1/DTD/svg11.dtd"><!-- Generated by graphviz version 2.35.0 (20140103.1005) --><!-- Title: FlowChart Pages: 1 --><svg width="325pt" height="561pt" viewBox="0.00 0.00 325 561" xmlns="http://www.w3.org/2000/svg" xmlns:xlink="http://www.w3.org/1999/xlink"><defs><linearGradient id="g-terminatork62sme6k0ozuxr" x1="0%" x2="100%" y1="0%" y2="0%" spreadMethod="pad"><stop offset="0%" stop-color="#ff8787" stop-opacity="1"/><stop offset="100%" stop-color="#ffb9b9" stop-opacity="1"/></linearGradient><linearGradient id="g-decisionk62sme6k0ozuxr" x1="0%" x2="100%" y1="0%" y2="0%" spreadMethod="pad"><stop offset="0%" stop-color="#ffd287" stop-opacity="1"/><stop offset="100%" stop-color="#ffffb9" stop-opacity="1"/></linearGradient><linearGradient id="g-processk62sme6k0ozuxr" x1="0%" x2="100%" y1="0%" y2="0%" spreadMethod="pad"><stop offset="0%" stop-color="#99ff99" stop-opacity="1"/><stop offset="100%" stop-color="#cbffcb" stop-opacity="1"/></linearGradient><linearGradient id="g-defaultk62sme6k0ozuxr" x1="0%" x2="100%" y1="0%" y2="0%" spreadMethod="pad"><stop offset="0%" stop-color="#99ff99" stop-opacity="1"/><stop offset="100%" stop-color="#cbffcb" stop-opacity="1"/></linearGradient><linearGradient id="g-modulek62sme6k0ozuxr" x1="0%" x2="100%" y1="0%" y2="0%" spreadMethod="pad"><stop offset="0%" stop-color="#77c1e4" stop-opacity="1"/><stop offset="100%" stop-color="#a9f3ff" stop-opacity="1"/></linearGradient><linearGradient id="g-dataiok62sme6k0ozuxr" x1="0%" x2="100%" y1="0%" y2="0%" spreadMethod="pad"><stop offset="0%" stop-color="#bebebe" stop-opacity="1"/><stop offset="100%" stop-color="#f0f0f0" stop-opacity="1"/></linearGradient><linearGradient id="g-preparationk62sme6k0ozuxr" x1="0%" x2="100%" y1="0%" y2="0%" spreadMethod="pad"><stop offset="0%" stop-color="#bebebe" stop-opacity="1"/><stop offset="100%" stop-color="#f0f0f0" stop-opacity="1"/></linearGradient><linearGradient id="g-commentk62sme6k0ozuxr" x1="0%" x2="100%" y1="0%" y2="0%" spreadMethod="pad"><stop offset="0%" stop-color="#f5f588" stop-opacity="1"/><stop offset="100%" stop-color="#ffffba" stop-opacity="1"/></linearGradient><linearGradient id="g-manualk62sme6k0ozuxr" x1="0%" x2="100%" y1="0%" y2="0%" spreadMethod="pad"><stop offset="0%" stop-color="#9e78ff" stop-opacity="1"/><stop offset="100%" stop-color="#d0aaff" stop-opacity="1"/></linearGradient><filter id="dropshadowk62sme6k0ozuxr" height="150%" width="150%"><feGaussianBlur in="SourceAlpha" stdDeviation="3"/><feOffset dx="2" dy="2" result="offsetblur"/><feComponentTransfer/><feMerge><feMergeNode/><feMergeNode in="SourceGraphic"/></feMerge></filter></defs><g id="flowk62sme6k0ozuxr" class="graph" transform="scale(1 1) rotate(0) translate(4 552)"><title>FlowChart</title><!-- terminator_block_1 --><g id="node1" class="node"><title>terminator_block_1</title><ellipse fill="url(#g-terminatork62sme6k0ozuxr)" stroke="black" cx="201" cy="-436" rx="111.27" ry="18"/><text xml:space="preserve" text-anchor="start" x="114" y="-433.5" font-family="Open Sans" font-size="10.00">Get series content from series table</text></g><!-- process_block_3 --><g id="node3" class="node"><title>process_block_3</title><polygon fill="url(#g-processk62sme6k0ozuxr)" stroke="black" points="261.25,-386 140.75,-386 140.75,-350 261.25,-350 261.25,-386"/><text xml:space="preserve" text-anchor="start" x="147.5" y="-365.5" font-family="Open Sans" font-size="10.00">For each series record</text></g><!-- terminator_block_1&#45;&gt;process_block_3 --><g id="edge1" class="edge"><title>terminator_block_1->process_block_3</title><path fill="none" stroke="black" d="M201,-417.659C201,-411.193 201,-403.682 201,-396.525"/><polygon fill="black" stroke="black" points="204.5,-396.454 201,-386.454 197.5,-396.454 204.5,-396.454"/></g><!-- comment_block_2 --><g id="node2" class="node"><title>comment_block_2</title><polygon fill="url(#g-commentk62sme6k0ozuxr)" stroke="black" points="231.25,-548 164.75,-548 164.75,-486 237.25,-486 237.25,-542 231.25,-548"/><polyline fill="none" stroke="black" points="231.25,-548 231.25,-542 "/><polyline fill="none" stroke="black" points="237.25,-542 231.25,-542 "/><text xml:space="preserve" text-anchor="start" x="176" y="-536" font-family="Open Sans" font-size="8.00">Migrate series</text><text xml:space="preserve" text-anchor="start" x="186.5" y="-527" font-family="Open Sans" font-size="8.00">content</text><text xml:space="preserve" text-anchor="start" x="168.5" y="-518" font-family="Open Sans" font-size="8.00">get series content</text><text xml:space="preserve" text-anchor="start" x="170.5" y="-509" font-family="Open Sans" font-size="8.00">from series table</text><text xml:space="preserve" text-anchor="start" x="185.5" y="-500" font-family="Open Sans" font-size="8.00">order by</text><text xml:space="preserve" text-anchor="start" x="175" y="-491" font-family="Open Sans" font-size="8.00">startdate desc</text></g><!-- comment_block_2&#45;&gt;terminator_block_1 --><g id="edge10" class="edge"><title>comment_block_2->terminator_block_1</title><path fill="none" stroke="black" stroke-dasharray="5,2" d="M201,-485.682C201,-477.056 201,-467.811 201,-459.72"/><polyline fill="none" stroke="black" points="201,-454.325 201,-459.325 "/></g><!-- ifs_block_4 --><g id="node4" class="node"><title>ifs_block_4</title><polygon fill="url(#g-decisionk62sme6k0ozuxr)" stroke="black" points="123,-318 63.59,-300 123,-282 182.41,-300 123,-318"/><text xml:space="preserve" text-anchor="start" x="95" y="-297.5" font-family="Open Sans" font-size="10.00">ImageFile1?</text></g><!-- process_block_3&#45;&gt;ifs_block_4 --><g id="edge2" class="edge"><title>process_block_3->ifs_block_4</title><path fill="none" stroke="black" d="M180.506,-349.659C169.86,-340.651 156.818,-329.615 145.847,-320.332"/><polygon fill="black" stroke="black" points="147.83,-317.425 137.935,-313.638 143.308,-322.769 147.83,-317.425"/></g><!-- process_block_6 --><g id="node6" class="node"><title>process_block_6</title><polygon fill="url(#g-processk62sme6k0ozuxr)" stroke="black" points="140,-240 0,-240 0,-204 140,-204 140,-240"/><text xml:space="preserve" text-anchor="start" x="7" y="-219.5" font-family="Open Sans" font-size="10.00">series_image = ImageFile1</text></g><!-- ifs_block_4&#45;&gt;process_block_6 --><g id="edge3" class="edge"><title>ifs_block_4->process_block_6</title><path fill="none" stroke="black" d="M113.031,-284.705C105.937,-274.532 96.2115,-260.586 87.8009,-248.526"/><polygon fill="black" stroke="black" points="90.5565,-246.358 81.9655,-240.158 84.8148,-250.363 90.5565,-246.358"/><text xml:space="preserve" text-anchor="start" x="99" y="-259.5" font-family="Open Sans" font-weight="bold" font-size="10.00"> True </text><polyline fill="none" stroke="Black" points="129,-255.5 92.6445,-255.5 "/></g><!-- process_block_7 --><g id="node7" class="node"><title>process_block_7</title><polygon fill="url(#g-processk62sme6k0ozuxr)" stroke="black" points="296,-240 162,-240 162,-204 296,-204 296,-240"/><text xml:space="preserve" text-anchor="start" x="169" y="-219.5" font-family="Open Sans" font-size="10.00">series_image = ImageFile</text></g><!-- ifs_block_4&#45;&gt;process_block_7 --><g id="edge4" class="edge"><title>ifs_block_4->process_block_7</title><path fill="none" stroke="black" d="M140.031,-286.789C155.256,-275.873 177.979,-259.581 196.65,-246.195"/><polygon fill="black" stroke="black" points="198.814,-248.95 204.901,-240.278 194.735,-243.261 198.814,-248.95"/><text xml:space="preserve" text-anchor="start" x="182" y="-259.5" font-family="Open Sans" font-weight="bold" font-size="10.00"> False </text><polyline fill="none" stroke="Black" points="213,-255.5 183.936,-255.5 "/></g><!-- comment_block_5 --><g id="node5" class="node"><title>comment_block_5</title><polygon fill="url(#g-commentk62sme6k0ozuxr)" stroke="black" points="112.5,-386 57.5,-386 57.5,-350 118.5,-350 118.5,-380 112.5,-386"/><polyline fill="none" stroke="black" points="112.5,-386 112.5,-380 "/><polyline fill="none" stroke="black" points="118.5,-380 112.5,-380 "/><text xml:space="preserve" text-anchor="start" x="61" y="-373.5" font-family="Open Sans" font-size="8.00">For each series</text><text xml:space="preserve" text-anchor="start" x="70.5" y="-364.5" font-family="Open Sans" font-size="8.00">check the</text><text xml:space="preserve" text-anchor="start" x="69" y="-355.5" font-family="Open Sans" font-size="8.00">ImageFile1</text></g><!-- comment_block_5&#45;&gt;ifs_block_4 --><g id="edge9" class="edge"><title>comment_block_5->ifs_block_4</title><path fill="none" stroke="black" stroke-dasharray="5,2" d="M97.1958,-349.659C101.956,-340.683 107.784,-329.694 112.695,-320.432"/><polyline fill="none" stroke="black" points="115.17,-315.765 112.827,-320.183 "/></g><!-- process_block_8 --><g id="node8" class="node"><title>process_block_8</title><polygon fill="url(#g-processk62sme6k0ozuxr)" stroke="black" points="233,-172 97,-172 97,-136 233,-136 233,-172"/><text xml:space="preserve" text-anchor="start" x="104" y="-151.5" font-family="Open Sans" font-size="10.00">Prepare jeky front matter</text></g><!-- process_block_6&#45;&gt;process_block_8 --><g id="edge5" class="edge"><title>process_block_6->process_block_8</title><path fill="none" stroke="black" d="M94.9601,-203.659C106.196,-195.853 119.623,-186.525 131.701,-178.134"/><polygon fill="black" stroke="black" points="133.991,-180.805 140.207,-172.225 129.997,-175.056 133.991,-180.805"/></g><!-- process_block_7&#45;&gt;process_block_8 --><g id="edge6" class="edge"><title>process_block_7->process_block_8</title><path fill="none" stroke="black" d="M212.185,-203.659C205.185,-196.441 196.924,-187.921 189.285,-180.044"/><polygon fill="black" stroke="black" points="191.399,-177.197 181.925,-172.454 186.374,-182.07 191.399,-177.197"/></g><!-- process_block_9 --><g id="node9" class="node"><title>process_block_9</title><polygon fill="url(#g-processk62sme6k0ozuxr)" stroke="black" points="239.25,-104 90.75,-104 90.75,-68 239.25,-68 239.25,-104"/><text xml:space="preserve" text-anchor="start" x="97.5" y="-89" font-family="Open Sans" font-size="10.00">Write generated jekyll front </text><text xml:space="preserve" text-anchor="start" x="115.5" y="-78" font-family="Open Sans" font-size="10.00">matter (YAML) to file</text></g><!-- process_block_8&#45;&gt;process_block_9 --><g id="edge7" class="edge"><title>process_block_8->process_block_9</title><path fill="none" stroke="black" d="M165,-135.659C165,-129.193 165,-121.682 165,-114.525"/><polygon fill="black" stroke="black" points="168.5,-114.454 165,-104.454 161.5,-114.454 168.5,-114.454"/></g><!-- terminator_block_10 --><g id="node10" class="node"><title>terminator_block_10</title><ellipse fill="url(#g-terminatork62sme6k0ozuxr)" stroke="black" cx="165" cy="-18" rx="27" ry="18"/><text xml:space="preserve" text-anchor="start" x="152.5" y="-15.5" font-family="Open Sans" font-size="10.00">Done</text></g><!-- process_block_9&#45;&gt;terminator_block_10 --><g id="edge8" class="edge"><title>process_block_9->terminator_block_10</title><path fill="none" stroke="black" d="M165,-67.6593C165,-61.1928 165,-53.6819 165,-46.5246"/><polygon fill="black" stroke="black" points="168.5,-46.454 165,-36.4541 161.5,-46.4541 168.5,-46.454"/></g></g></svg>